<svg xmlns="http://www.w3.org/2000/svg" xmlns:xlink="http://www.w3.org/1999/xlink" width="100" zoomAndPan="magnify" viewBox="0 0 75 60" height="80" preserveAspectRatio="xMidYMid meet" version="1.0"><defs><clipPath id="id1"><path d="M 30.847656 50.601562 L 47.09375 50.601562 L 47.09375 59.996094 L 30.847656 59.996094 Z M 30.847656 50.601562 " clip-rule="nonzero"/></clipPath><clipPath id="id2"><path d="M 34.273438 51.769531 L 35.742188 51.769531 L 35.742188 59.996094 L 34.273438 59.996094 Z M 34.273438 51.769531 " clip-rule="nonzero"/></clipPath><clipPath id="id3"><path d="M 38.1875 51.769531 L 39.753906 51.769531 L 39.753906 59.996094 L 38.1875 59.996094 Z M 38.1875 51.769531 " clip-rule="nonzero"/></clipPath><clipPath id="id4"><path d="M 42.105469 51.769531 L 43.667969 51.769531 L 43.667969 59.996094 L 42.105469 59.996094 Z M 42.105469 51.769531 " clip-rule="nonzero"/></clipPath><clipPath id="id5"><path d="M 62.65625 41.242188 L 68.351562 41.242188 L 68.351562 46.507812 L 62.65625 46.507812 Z M 62.65625 41.242188 " clip-rule="nonzero"/></clipPath></defs><path fill="#404a54" d="M 48.480469 55.8125 L 29.433594 55.8125 C 28.824219 55.8125 28.332031 55.320312 28.332031 54.714844 L 28.332031 50.601562 L 49.585938 50.601562 L 49.585938 54.714844 C 49.585938 55.320312 49.089844 55.8125 48.480469 55.8125 " fill-opacity="1" fill-rule="nonzero"/><path fill="#01878e" d="M 22.046875 11.121094 L 21.28125 11.121094 C 20.226562 11.121094 19.371094 10.265625 19.371094 9.21875 L 19.371094 2.664062 L 20.78125 2.664062 L 20.78125 9.21875 C 20.78125 9.492188 21.007812 9.714844 21.28125 9.714844 L 22.046875 9.714844 L 22.046875 11.121094 " fill-opacity="1" fill-rule="nonzero"/><path fill="#01878e" d="M 56.820312 11.121094 L 56.054688 11.121094 L 56.054688 9.714844 L 56.820312 9.714844 C 57.09375 9.714844 57.316406 9.492188 57.316406 9.21875 L 57.316406 2.664062 L 58.726562 2.664062 L 58.726562 9.21875 C 58.726562 10.265625 57.871094 11.121094 56.820312 11.121094 " fill-opacity="1" fill-rule="nonzero"/><path fill="#ffce00" d="M 53.199219 13.941406 L 24.71875 13.941406 C 22.902344 13.941406 21.433594 12.476562 21.433594 10.667969 C 21.433594 8.859375 22.902344 7.394531 24.71875 7.394531 L 53.199219 7.394531 C 55.011719 7.394531 56.484375 8.859375 56.484375 10.667969 C 56.484375 12.476562 55.011719 13.941406 53.199219 13.941406 " fill-opacity="1" fill-rule="nonzero"/><path fill="#01878e" d="M 54.960938 45.617188 L 22.953125 45.617188 L 22.953125 39.847656 L 54.960938 39.847656 L 54.960938 45.617188 " fill-opacity="1" fill-rule="nonzero"/><path fill="#01878e" d="M 54.960938 45.617188 L 22.953125 45.617188 L 22.953125 39.847656 L 54.960938 39.847656 L 54.960938 45.617188 " fill-opacity="1" fill-rule="nonzero"/><g clip-path="url(#id1)"><path fill="#01878e" d="M 45.265625 59.996094 L 32.648438 59.996094 C 31.675781 59.996094 30.890625 59.214844 30.890625 58.246094 L 30.890625 50.601562 L 47.027344 50.601562 L 47.027344 58.246094 C 47.027344 59.214844 46.238281 59.996094 45.265625 59.996094 " fill-opacity="1" fill-rule="nonzero"/></g><path fill="#01878e" d="M 9.875 18.578125 C 9.675781 18.578125 9.476562 18.554688 9.277344 18.515625 C 8.546875 18.355469 7.917969 17.925781 7.511719 17.296875 C 6.871094 16.308594 6.925781 15.015625 7.640625 14.082031 L 8.761719 14.9375 C 8.40625 15.402344 8.378906 16.042969 8.699219 16.535156 C 8.902344 16.847656 9.210938 17.0625 9.578125 17.140625 C 9.941406 17.21875 10.3125 17.152344 10.625 16.949219 C 10.941406 16.75 11.15625 16.4375 11.234375 16.074219 C 11.3125 15.710938 11.246094 15.339844 11.042969 15.027344 C 10.875 14.773438 10.636719 14.582031 10.347656 14.476562 L 10.828125 13.15625 C 11.410156 13.367188 11.890625 13.75 12.226562 14.265625 C 12.632812 14.894531 12.769531 15.640625 12.613281 16.371094 C 12.453125 17.101562 12.019531 17.726562 11.390625 18.128906 C 10.933594 18.425781 10.410156 18.578125 9.875 18.578125 " fill-opacity="1" fill-rule="nonzero"/><path fill="#01878e" d="M 45.84375 25.46875 L 32.070312 25.46875 C 31.046875 25.46875 30.21875 24.640625 30.21875 23.621094 L 30.21875 9.074219 C 30.21875 8.054688 31.046875 7.226562 32.070312 7.226562 L 45.84375 7.226562 C 46.867188 7.226562 47.699219 8.054688 47.699219 9.074219 L 47.699219 23.621094 C 47.699219 24.640625 46.867188 25.46875 45.84375 25.46875 " fill-opacity="1" fill-rule="nonzero"/><path fill="#00babc" d="M 48.996094 18.796875 L 28.921875 18.796875 C 26.289062 18.796875 24.152344 16.667969 24.152344 14.046875 L 24.152344 6.832031 C 24.152344 4.210938 26.289062 2.082031 28.921875 2.082031 L 48.996094 2.082031 C 51.628906 2.082031 53.761719 4.210938 53.761719 6.832031 L 53.761719 14.046875 C 53.761719 16.667969 51.628906 18.796875 48.996094 18.796875 " fill-opacity="1" fill-rule="nonzero"/><path fill="#404a54" d="M 49.15625 16.011719 L 28.761719 16.011719 C 28.007812 16.011719 27.398438 15.402344 27.398438 14.65625 L 27.398438 6.222656 C 27.398438 5.476562 28.007812 4.867188 28.761719 4.867188 L 49.15625 4.867188 C 49.90625 4.867188 50.515625 5.476562 50.515625 6.222656 L 50.515625 14.65625 C 50.515625 15.402344 49.90625 16.011719 49.15625 16.011719 " fill-opacity="1" fill-rule="nonzero"/><path fill="#00babc" d="M 56.648438 42.292969 C 57.324219 42.292969 57.898438 41.78125 57.953125 41.109375 C 58 40.582031 58.019531 40.046875 58.019531 39.503906 C 58.019531 29.015625 49.484375 20.515625 38.957031 20.515625 C 28.429688 20.515625 19.894531 29.015625 19.894531 39.503906 C 19.894531 40.046875 19.917969 40.582031 19.960938 41.109375 C 20.019531 41.78125 20.589844 42.292969 21.265625 42.292969 L 56.648438 42.292969 " fill-opacity="1" fill-rule="nonzero"/><path fill="#00babc" d="M 21.476562 47.085938 C 22.140625 48.605469 23 50.023438 24.023438 51.304688 C 24.269531 51.617188 24.648438 51.796875 25.046875 51.796875 L 52.867188 51.796875 C 53.269531 51.796875 53.644531 51.617188 53.894531 51.304688 C 54.917969 50.023438 55.773438 48.605469 56.441406 47.085938 C 56.816406 46.226562 56.179688 45.261719 55.238281 45.261719 L 22.675781 45.261719 C 21.734375 45.261719 21.097656 46.226562 21.476562 47.085938 " fill-opacity="1" fill-rule="nonzero"/><path fill="#01878e" d="M 39.160156 49.136719 L 38.753906 49.136719 C 38.691406 49.136719 38.636719 49.082031 38.636719 49.019531 L 38.636719 46.652344 C 38.636719 46.589844 38.691406 46.535156 38.753906 46.535156 L 39.160156 46.535156 C 39.226562 46.535156 39.28125 46.589844 39.28125 46.652344 L 39.28125 49.019531 C 39.28125 49.082031 39.226562 49.136719 39.160156 49.136719 " fill-opacity="1" fill-rule="nonzero"/><path fill="#01878e" d="M 36.667969 49.136719 L 36.261719 49.136719 C 36.199219 49.136719 36.144531 49.082031 36.144531 49.019531 L 36.144531 46.652344 C 36.144531 46.589844 36.199219 46.535156 36.261719 46.535156 L 36.667969 46.535156 C 36.734375 46.535156 36.789062 46.589844 36.789062 46.652344 L 36.789062 49.019531 C 36.789062 49.082031 36.734375 49.136719 36.667969 49.136719 " fill-opacity="1" fill-rule="nonzero"/><path fill="#01878e" d="M 34.179688 49.136719 L 33.773438 49.136719 C 33.707031 49.136719 33.652344 49.082031 33.652344 49.019531 L 33.652344 46.652344 C 33.652344 46.589844 33.707031 46.535156 33.773438 46.535156 L 34.179688 46.535156 C 34.242188 46.535156 34.296875 46.589844 34.296875 46.652344 L 34.296875 49.019531 C 34.296875 49.082031 34.242188 49.136719 34.179688 49.136719 " fill-opacity="1" fill-rule="nonzero"/><path fill="#01878e" d="M 31.6875 49.136719 L 31.28125 49.136719 C 31.214844 49.136719 31.164062 49.082031 31.164062 49.019531 L 31.164062 46.652344 C 31.164062 46.589844 31.214844 46.535156 31.28125 46.535156 L 31.6875 46.535156 C 31.75 46.535156 31.804688 46.589844 31.804688 46.652344 L 31.804688 49.019531 C 31.804688 49.082031 31.75 49.136719 31.6875 49.136719 " fill-opacity="1" fill-rule="nonzero"/><path fill="#01878e" d="M 29.195312 49.136719 L 28.789062 49.136719 C 28.722656 49.136719 28.671875 49.082031 28.671875 49.019531 L 28.671875 46.652344 C 28.671875 46.589844 28.722656 46.535156 28.789062 46.535156 L 29.195312 46.535156 C 29.261719 46.535156 29.3125 46.589844 29.3125 46.652344 L 29.3125 49.019531 C 29.3125 49.082031 29.261719 49.136719 29.195312 49.136719 " fill-opacity="1" fill-rule="nonzero"/><path fill="#01878e" d="M 26.703125 49.136719 L 26.296875 49.136719 C 26.230469 49.136719 26.179688 49.082031 26.179688 49.019531 L 26.179688 46.652344 C 26.179688 46.589844 26.230469 46.535156 26.296875 46.535156 L 26.703125 46.535156 C 26.769531 46.535156 26.820312 46.589844 26.820312 46.652344 L 26.820312 49.019531 C 26.820312 49.082031 26.769531 49.136719 26.703125 49.136719 " fill-opacity="1" fill-rule="nonzero"/><path fill="#01878e" d="M 41.652344 49.136719 L 41.246094 49.136719 C 41.179688 49.136719 41.128906 49.082031 41.128906 49.019531 L 41.128906 46.652344 C 41.128906 46.589844 41.179688 46.535156 41.246094 46.535156 L 41.652344 46.535156 C 41.71875 46.535156 41.769531 46.589844 41.769531 46.652344 L 41.769531 49.019531 C 41.769531 49.082031 41.71875 49.136719 41.652344 49.136719 " fill-opacity="1" fill-rule="nonzero"/><path fill="#01878e" d="M 44.144531 49.136719 L 43.738281 49.136719 C 43.671875 49.136719 43.621094 49.082031 43.621094 49.019531 L 43.621094 46.652344 C 43.621094 46.589844 43.671875 46.535156 43.738281 46.535156 L 44.144531 46.535156 C 44.210938 46.535156 44.261719 46.589844 44.261719 46.652344 L 44.261719 49.019531 C 44.261719 49.082031 44.210938 49.136719 44.144531 49.136719 " fill-opacity="1" fill-rule="nonzero"/><path fill="#01878e" d="M 46.636719 49.136719 L 46.230469 49.136719 C 46.164062 49.136719 46.109375 49.082031 46.109375 49.019531 L 46.109375 46.652344 C 46.109375 46.589844 46.164062 46.535156 46.230469 46.535156 L 46.636719 46.535156 C 46.699219 46.535156 46.753906 46.589844 46.753906 46.652344 L 46.753906 49.019531 C 46.753906 49.082031 46.699219 49.136719 46.636719 49.136719 " fill-opacity="1" fill-rule="nonzero"/><path fill="#01878e" d="M 49.125 49.136719 L 48.71875 49.136719 C 48.65625 49.136719 48.601562 49.082031 48.601562 49.019531 L 48.601562 46.652344 C 48.601562 46.589844 48.65625 46.535156 48.71875 46.535156 L 49.125 46.535156 C 49.191406 46.535156 49.246094 46.589844 49.246094 46.652344 L 49.246094 49.019531 C 49.246094 49.082031 49.191406 49.136719 49.125 49.136719 " fill-opacity="1" fill-rule="nonzero"/><path fill="#01878e" d="M 51.617188 49.136719 L 51.210938 49.136719 C 51.148438 49.136719 51.09375 49.082031 51.09375 49.019531 L 51.09375 46.652344 C 51.09375 46.589844 51.148438 46.535156 51.210938 46.535156 L 51.617188 46.535156 C 51.683594 46.535156 51.738281 46.589844 51.738281 46.652344 L 51.738281 49.019531 C 51.738281 49.082031 51.683594 49.136719 51.617188 49.136719 " fill-opacity="1" fill-rule="nonzero"/><path fill="#ffce00" d="M 37.371094 8.832031 C 37.371094 7.816406 38.199219 6.992188 39.21875 6.992188 C 40.242188 6.992188 41.070312 7.816406 41.070312 8.832031 C 41.070312 9.851562 40.242188 10.675781 39.21875 10.675781 C 38.199219 10.675781 37.371094 9.851562 37.371094 8.832031 " fill-opacity="1" fill-rule="nonzero"/><path fill="#ffce00" d="M 34.179688 32.210938 C 34.179688 29.433594 36.4375 27.1875 39.21875 27.1875 C 42.003906 27.1875 44.261719 29.433594 44.261719 32.210938 C 44.261719 34.984375 42.003906 37.230469 39.21875 37.230469 C 36.4375 37.230469 34.179688 34.984375 34.179688 32.210938 " fill-opacity="1" fill-rule="nonzero"/><path fill="#ffffff" d="M 36.992188 32.210938 C 36.992188 30.984375 37.988281 29.988281 39.21875 29.988281 C 40.453125 29.988281 41.449219 30.984375 41.449219 32.210938 C 41.449219 33.4375 40.453125 34.429688 39.21875 34.429688 C 37.988281 34.429688 36.992188 33.4375 36.992188 32.210938 " fill-opacity="1" fill-rule="nonzero"/><path fill="#ffce00" d="M 30.8125 8.832031 C 30.8125 7.816406 31.640625 6.992188 32.660156 6.992188 C 33.683594 6.992188 34.511719 7.816406 34.511719 8.832031 C 34.511719 9.851562 33.683594 10.675781 32.660156 10.675781 C 31.640625 10.675781 30.8125 9.851562 30.8125 8.832031 " fill-opacity="1" fill-rule="nonzero"/><path fill="#ffce00" d="M 43.929688 8.832031 C 43.929688 7.816406 44.757812 6.992188 45.777344 6.992188 C 46.800781 6.992188 47.628906 7.816406 47.628906 8.832031 C 47.628906 9.851562 46.800781 10.675781 45.777344 10.675781 C 44.757812 10.675781 43.929688 9.851562 43.929688 8.832031 " fill-opacity="1" fill-rule="nonzero"/><path fill="#01878e" d="M 18.25 1.820312 C 18.25 0.816406 19.066406 0 20.078125 0 C 21.085938 0 21.90625 0.816406 21.90625 1.820312 C 21.90625 2.828125 21.085938 3.644531 20.078125 3.644531 C 19.066406 3.644531 18.25 2.828125 18.25 1.820312 " fill-opacity="1" fill-rule="nonzero"/><path fill="#01878e" d="M 56.191406 1.820312 C 56.191406 0.816406 57.011719 0 58.019531 0 C 59.03125 0 59.851562 0.816406 59.851562 1.820312 C 59.851562 2.828125 59.03125 3.644531 58.019531 3.644531 C 57.011719 3.644531 56.191406 2.828125 56.191406 1.820312 " fill-opacity="1" fill-rule="nonzero"/><g clip-path="url(#id2)"><path fill="#404a54" d="M 35.71875 59.996094 L 34.308594 59.996094 L 34.308594 51.796875 L 35.71875 51.796875 L 35.71875 59.996094 " fill-opacity="1" fill-rule="nonzero"/></g><g clip-path="url(#id3)"><path fill="#404a54" d="M 39.664062 59.996094 L 38.253906 59.996094 L 38.253906 51.796875 L 39.664062 51.796875 L 39.664062 59.996094 " fill-opacity="1" fill-rule="nonzero"/></g><g clip-path="url(#id4)"><path fill="#404a54" d="M 43.609375 59.996094 L 42.199219 59.996094 L 42.199219 51.796875 L 43.609375 51.796875 L 43.609375 59.996094 " fill-opacity="1" fill-rule="nonzero"/></g><path fill="#01878e" d="M 12.527344 30.976562 L 9.699219 19.5 L 11.753906 18.996094 L 14.140625 28.679688 L 23.871094 27.617188 L 24.101562 29.710938 L 12.527344 30.976562 " fill-opacity="1" fill-rule="nonzero"/><path fill="#404a54" d="M 21.144531 28.8125 C 21.121094 27.496094 22.175781 26.414062 23.496094 26.394531 C 24.816406 26.371094 25.902344 27.421875 25.921875 28.734375 C 25.945312 30.050781 24.890625 31.132812 23.570312 31.15625 C 22.25 31.175781 21.164062 30.125 21.144531 28.8125 " fill-opacity="1" fill-rule="nonzero"/><path fill="#404a54" d="M 11.613281 29.363281 C 11.597656 28.34375 12.414062 27.503906 13.4375 27.488281 C 14.460938 27.472656 15.300781 28.285156 15.320312 29.304688 C 15.335938 30.324219 14.519531 31.164062 13.496094 31.179688 C 12.472656 31.199219 11.628906 30.382812 11.613281 29.363281 " fill-opacity="1" fill-rule="nonzero"/><path fill="#ffce00" d="M 8.921875 19.277344 C 8.90625 18.285156 9.699219 17.46875 10.695312 17.453125 C 11.691406 17.4375 12.511719 18.226562 12.527344 19.21875 C 12.542969 20.210938 11.75 21.027344 10.753906 21.042969 C 9.757812 21.058594 8.9375 20.269531 8.921875 19.277344 " fill-opacity="1" fill-rule="nonzero"/><path fill="#404a54" d="M 9.90625 19.261719 C 9.898438 18.808594 10.257812 18.4375 10.710938 18.429688 C 11.164062 18.425781 11.539062 18.785156 11.542969 19.234375 C 11.550781 19.6875 11.191406 20.058594 10.738281 20.066406 C 10.285156 20.070312 9.914062 19.710938 9.90625 19.261719 " fill-opacity="1" fill-rule="nonzero"/><g clip-path="url(#id5)"><path fill="#01878e" d="M 64.179688 46.496094 C 63.640625 46.199219 63.226562 45.742188 62.976562 45.179688 C 62.679688 44.496094 62.664062 43.734375 62.933594 43.039062 C 63.207031 42.34375 63.734375 41.796875 64.421875 41.496094 C 65.109375 41.199219 65.871094 41.183594 66.570312 41.453125 C 67.265625 41.726562 67.816406 42.25 68.117188 42.933594 C 68.589844 44.011719 68.332031 45.28125 67.476562 46.085938 L 66.507812 45.066406 C 66.933594 44.664062 67.0625 44.035156 66.824219 43.5 C 66.675781 43.160156 66.402344 42.898438 66.054688 42.761719 C 65.707031 42.628906 65.328125 42.636719 64.988281 42.785156 C 64.648438 42.933594 64.382812 43.207031 64.25 43.550781 C 64.113281 43.898438 64.121094 44.273438 64.269531 44.613281 C 64.394531 44.894531 64.601562 45.121094 64.867188 45.269531 L 64.179688 46.496094 " fill-opacity="1" fill-rule="nonzero"/></g><path fill="#01878e" d="M 64.203125 40.582031 L 63.398438 30.644531 L 53.621094 30.148438 L 53.730469 28.046875 L 65.359375 28.632812 L 66.3125 40.414062 L 64.203125 40.582031 " fill-opacity="1" fill-rule="nonzero"/><path fill="#404a54" d="M 56.503906 29.402344 C 56.316406 30.703125 55.101562 31.605469 53.796875 31.417969 C 52.488281 31.226562 51.585938 30.019531 51.773438 28.71875 C 51.964844 27.417969 53.175781 26.515625 54.484375 26.703125 C 55.789062 26.894531 56.695312 28.101562 56.503906 29.402344 " fill-opacity="1" fill-rule="nonzero"/><path fill="#404a54" d="M 66.003906 30.371094 C 65.855469 31.378906 64.914062 32.078125 63.902344 31.933594 C 62.890625 31.785156 62.1875 30.847656 62.335938 29.839844 C 62.480469 28.832031 63.421875 28.132812 64.433594 28.277344 C 65.449219 28.425781 66.148438 29.363281 66.003906 30.371094 " fill-opacity="1" fill-rule="nonzero"/><path fill="#ffce00" d="M 67.042969 40.757812 C 66.898438 41.738281 65.984375 42.417969 65 42.277344 C 64.015625 42.132812 63.332031 41.222656 63.476562 40.242188 C 63.617188 39.257812 64.535156 38.578125 65.519531 38.722656 C 66.503906 38.863281 67.1875 39.777344 67.042969 40.757812 " fill-opacity="1" fill-rule="nonzero"/><path fill="#404a54" d="M 66.070312 40.617188 C 66.003906 41.0625 65.589844 41.371094 65.140625 41.308594 C 64.691406 41.242188 64.382812 40.828125 64.449219 40.382812 C 64.511719 39.933594 64.929688 39.625 65.378906 39.691406 C 65.824219 39.753906 66.136719 40.171875 66.070312 40.617188 " fill-opacity="1" fill-rule="nonzero"/><path fill="#ffffff" d="M 39.21875 14.945312 C 40.769531 14.945312 42.027344 13.695312 42.027344 12.152344 L 36.414062 12.152344 C 36.414062 13.695312 37.671875 14.945312 39.21875 14.945312 " fill-opacity="1" fill-rule="nonzero"/></svg>