<svg xmlns="http://www.w3.org/2000/svg" xmlns:xlink="http://www.w3.org/1999/xlink" width="200" zoomAndPan="magnify" viewBox="0 0 150 149.999998" height="200" preserveAspectRatio="xMidYMid meet" version="1.0"><defs><clipPath id="id1"><path d="M 129.171875 90.464844 L 141.457031 90.464844 L 141.457031 102 L 129.171875 102 Z M 129.171875 90.464844 " clip-rule="nonzero"/></clipPath><clipPath id="id2"><path d="M 58.613281 89.019531 L 97.101562 89.019531 L 97.101562 149.976562 L 58.613281 149.976562 Z M 58.613281 89.019531 " clip-rule="nonzero"/></clipPath><clipPath id="id3"><path d="M 62 89.019531 L 97.101562 89.019531 L 97.101562 149.976562 L 62 149.976562 Z M 62 89.019531 " clip-rule="nonzero"/></clipPath></defs><path fill="#acaca4" d="M 75.214844 10.023438 C 74.660156 6.246094 73.375 4.695312 73.363281 4.679688 L 75.511719 2.78125 C 75.699219 2.992188 77.375 4.960938 78.054688 9.609375 L 75.214844 10.023438 " fill-opacity="1" fill-rule="nonzero"/><path fill="#acaca4" d="M 112.171875 41.25 L 110.828125 38.71875 C 114.207031 36.933594 115.242188 35.207031 115.25 35.1875 L 117.765625 36.570312 C 117.628906 36.820312 116.332031 39.054688 112.171875 41.25 " fill-opacity="1" fill-rule="nonzero"/><path fill="#acaca4" d="M 43.523438 40.523438 C 43.246094 40.476562 40.710938 39.953125 37.304688 36.707031 L 39.289062 34.636719 C 42.050781 37.273438 44.023438 37.703125 44.042969 37.707031 L 43.523438 40.523438 " fill-opacity="1" fill-rule="nonzero"/><path fill="#ffce00" d="M 52.375 37.59375 L 47.988281 48.011719 L 45.207031 46.847656 C 42.324219 45.636719 40.96875 42.324219 42.179688 39.449219 C 43.390625 36.570312 46.710938 35.21875 49.59375 36.425781 L 52.375 37.59375 " fill-opacity="1" fill-rule="nonzero"/><path fill="#ffce00" d="M 103.363281 37.59375 L 107.75 48.011719 L 110.53125 46.847656 C 113.414062 45.636719 114.769531 42.324219 113.558594 39.449219 C 112.347656 36.570312 109.027344 35.21875 106.144531 36.425781 L 103.363281 37.59375 " fill-opacity="1" fill-rule="nonzero"/><path fill="#9dab2c" d="M 64.730469 38.058594 L 57.199219 55.949219 L 52.421875 53.945312 C 47.472656 51.871094 45.148438 46.183594 47.226562 41.242188 C 49.308594 36.300781 55.007812 33.980469 59.957031 36.054688 L 64.730469 38.058594 " fill-opacity="1" fill-rule="nonzero"/><path fill="#9dab2c" d="M 91.003906 38.058594 L 98.539062 55.949219 L 103.3125 53.945312 C 108.265625 51.871094 110.589844 46.183594 108.511719 41.242188 C 106.429688 36.300781 100.730469 33.980469 95.78125 36.054688 L 91.003906 38.058594 " fill-opacity="1" fill-rule="nonzero"/><path fill="#acaca4" d="M 17.199219 101.972656 C 16.03125 101.300781 15.136719 100.292969 14.613281 99.054688 C 13.976562 97.550781 13.96875 95.890625 14.582031 94.378906 C 15.199219 92.867188 16.367188 91.683594 17.875 91.050781 C 20.980469 89.738281 24.582031 91.199219 25.894531 94.300781 C 26.894531 96.671875 26.296875 99.433594 24.398438 101.175781 L 22.457031 99.066406 C 23.464844 98.144531 23.78125 96.675781 23.25 95.414062 C 22.554688 93.765625 20.640625 92.992188 18.988281 93.6875 C 18.1875 94.023438 17.566406 94.652344 17.242188 95.457031 C 16.914062 96.257812 16.917969 97.140625 17.257812 97.941406 C 17.535156 98.597656 18.011719 99.132812 18.628906 99.488281 L 17.199219 101.972656 " fill-opacity="1" fill-rule="nonzero"/><path fill="#acaca4" d="M 22.960938 92.765625 L 20.535156 91.234375 C 21.097656 90.34375 34.492188 69.386719 48.351562 65.066406 L 49.207031 67.800781 C 36.34375 71.808594 23.09375 92.554688 22.960938 92.765625 " fill-opacity="1" fill-rule="nonzero"/><path fill="#9dab2c" d="M 24.875 84.394531 L 28.011719 87.171875 C 29.257812 88.269531 31.175781 88.085938 32.183594 86.769531 L 41.003906 75.257812 C 41.914062 74.070312 41.75 72.382812 40.628906 71.386719 L 39.058594 70 C 37.9375 69.007812 36.238281 69.050781 35.164062 70.09375 L 24.773438 80.214844 C 23.585938 81.371094 23.632812 83.292969 24.875 84.394531 " fill-opacity="1" fill-rule="nonzero"/><g clip-path="url(#id1)"><path fill="#acaca4" d="M 138.394531 101.972656 L 136.964844 99.488281 C 137.582031 99.132812 138.054688 98.597656 138.335938 97.941406 C 139.03125 96.292969 138.253906 94.382812 136.601562 93.6875 C 135.804688 93.351562 134.917969 93.34375 134.113281 93.671875 C 133.308594 93.996094 132.679688 94.617188 132.339844 95.414062 C 131.808594 96.675781 132.128906 98.144531 133.136719 99.066406 L 131.191406 101.175781 C 129.296875 99.433594 128.695312 96.671875 129.699219 94.300781 C 130.332031 92.796875 131.519531 91.632812 133.035156 91.019531 C 134.546875 90.402344 136.210938 90.414062 137.71875 91.050781 C 140.828125 92.359375 142.289062 95.949219 140.976562 99.054688 C 140.453125 100.292969 139.558594 101.300781 138.394531 101.972656 " fill-opacity="1" fill-rule="nonzero"/></g><path fill="#acaca4" d="M 132.632812 92.765625 C 132.5 92.554688 119.238281 71.808594 106.382812 67.800781 L 107.242188 65.066406 C 121.101562 69.386719 134.496094 90.34375 135.058594 91.234375 L 132.632812 92.765625 " fill-opacity="1" fill-rule="nonzero"/><g clip-path="url(#id2)"><path fill="#86acf7" d="M 95.515625 89.144531 L 60.222656 89.144531 L 59.039062 102 C 57.113281 122.992188 62.769531 143.699219 71.710938 148.382812 C 75.765625 150.507812 79.972656 150.507812 84.027344 148.382812 C 92.96875 143.699219 98.625 122.992188 96.699219 102 L 95.515625 89.144531 " fill-opacity="1" fill-rule="nonzero"/></g><g clip-path="url(#id3)"><path fill="#309ad6" d="M 96.699219 102 L 95.515625 89.144531 L 92.335938 89.144531 L 92.699219 93.125 C 94.628906 114.117188 88.972656 134.828125 80.03125 139.511719 C 75.976562 141.632812 71.769531 141.632812 67.710938 139.511719 C 65.625 138.417969 63.71875 136.453125 62.046875 133.8125 C 64.347656 140.949219 67.695312 146.28125 71.710938 148.382812 C 75.765625 150.507812 79.972656 150.507812 84.027344 148.382812 C 92.96875 143.699219 98.625 122.992188 96.699219 102 " fill-opacity="1" fill-rule="nonzero"/></g><path fill="#9dab2c" d="M 104.351562 93.292969 L 100.238281 74.238281 C 99.269531 70.222656 97.988281 66.339844 96.464844 62.765625 C 90.796875 48.410156 84.1875 43.042969 77.871094 43.472656 C 71.550781 43.042969 64.941406 48.410156 59.273438 62.765625 C 57.75 66.339844 56.46875 70.222656 55.5 74.238281 L 51.386719 93.292969 C 48.675781 105.867188 56.632812 118.265625 69.207031 121.070312 C 74.910156 122.34375 80.828125 122.34375 86.53125 121.070312 C 99.105469 118.265625 107.0625 105.867188 104.351562 93.292969 " fill-opacity="1" fill-rule="nonzero"/><path fill="#ffce00" d="M 86.902344 22.257812 L 68.832031 22.257812 L 68.832031 17.453125 C 68.832031 12.472656 72.878906 8.4375 77.871094 8.4375 C 82.859375 8.4375 86.902344 12.472656 86.902344 17.453125 L 86.902344 22.257812 " fill-opacity="1" fill-rule="nonzero"/><path fill="#d9db27" d="M 110.199219 78.160156 L 105.179688 54.898438 C 103.992188 49.992188 102.429688 45.257812 100.570312 40.894531 C 93.652344 23.367188 85.582031 16.8125 77.871094 17.339844 C 70.15625 16.8125 62.085938 23.367188 55.167969 40.894531 C 53.308594 45.257812 51.746094 49.992188 50.558594 54.898438 L 45.539062 78.160156 C 42.230469 93.507812 51.941406 108.648438 67.292969 112.074219 C 74.257812 113.625 81.480469 113.625 88.445312 112.074219 C 103.796875 108.648438 113.507812 93.507812 110.199219 78.160156 " fill-opacity="1" fill-rule="nonzero"/><path fill="#9dab2c" d="M 130.71875 84.394531 L 127.578125 87.171875 C 126.335938 88.269531 124.417969 88.085938 123.410156 86.769531 L 114.589844 75.257812 C 113.679688 74.070312 113.84375 72.382812 114.964844 71.386719 L 116.53125 70 C 117.65625 69.007812 119.355469 69.050781 120.429688 70.09375 L 130.816406 80.214844 C 132.007812 81.371094 131.960938 83.292969 130.71875 84.394531 " fill-opacity="1" fill-rule="nonzero"/><path fill="#404a54" d="M 60.265625 48.996094 C 60.265625 40.640625 68.113281 33.867188 77.796875 33.867188 C 87.476562 33.867188 95.328125 40.640625 95.328125 48.996094 C 95.328125 57.351562 87.476562 64.125 77.796875 64.125 C 68.113281 64.125 60.265625 57.351562 60.265625 48.996094 " fill-opacity="1" fill-rule="nonzero"/><path fill="#9dab2c" d="M 77.796875 35.296875 C 68.921875 35.296875 61.699219 41.441406 61.699219 48.996094 C 61.699219 56.550781 68.921875 62.695312 77.796875 62.695312 C 86.671875 62.695312 93.890625 56.550781 93.890625 48.996094 C 93.890625 41.441406 86.671875 35.296875 77.796875 35.296875 Z M 77.796875 65.558594 C 67.339844 65.558594 58.832031 58.128906 58.832031 48.996094 C 58.832031 39.863281 67.339844 32.433594 77.796875 32.433594 C 88.253906 32.433594 96.761719 39.863281 96.761719 48.996094 C 96.761719 58.128906 88.253906 65.558594 77.796875 65.558594 " fill-opacity="1" fill-rule="nonzero"/><path fill="#309ad6" d="M 39.730469 34.851562 C 39.730469 36.558594 38.347656 37.9375 36.640625 37.9375 C 34.933594 37.9375 33.550781 36.558594 33.550781 34.851562 C 33.550781 33.148438 34.933594 31.769531 36.640625 31.769531 C 38.347656 31.769531 39.730469 33.148438 39.730469 34.851562 " fill-opacity="1" fill-rule="nonzero"/><path fill="#56b0d8" d="M 77.535156 3.105469 C 77.535156 4.808594 76.152344 6.1875 74.445312 6.1875 C 72.738281 6.1875 71.355469 4.808594 71.355469 3.105469 C 71.355469 1.402344 72.738281 0.0195312 74.445312 0.0195312 C 76.152344 0.0195312 77.535156 1.402344 77.535156 3.105469 " fill-opacity="1" fill-rule="nonzero"/><path fill="#56b0d8" d="M 120.328125 34.851562 C 120.328125 36.558594 118.945312 37.9375 117.238281 37.9375 C 115.53125 37.9375 114.148438 36.558594 114.148438 34.851562 C 114.148438 33.148438 115.53125 31.769531 117.238281 31.769531 C 118.945312 31.769531 120.328125 33.148438 120.328125 34.851562 " fill-opacity="1" fill-rule="nonzero"/><path fill="#ffce00" d="M 72.382812 48.996094 C 72.382812 50.699219 71 52.082031 69.292969 52.082031 C 67.585938 52.082031 66.203125 50.699219 66.203125 48.996094 C 66.203125 47.292969 67.585938 45.910156 69.292969 45.910156 C 71 45.910156 72.382812 47.292969 72.382812 48.996094 " fill-opacity="1" fill-rule="nonzero"/><path fill="#ffce00" d="M 80.960938 48.996094 C 80.960938 50.699219 79.574219 52.082031 77.871094 52.082031 C 76.164062 52.082031 74.777344 50.699219 74.777344 48.996094 C 74.777344 47.292969 76.164062 45.910156 77.871094 45.910156 C 79.574219 45.910156 80.960938 47.292969 80.960938 48.996094 " fill-opacity="1" fill-rule="nonzero"/><path fill="#ffce00" d="M 89.539062 48.996094 C 89.539062 50.699219 88.15625 52.082031 86.449219 52.082031 C 84.742188 52.082031 83.359375 50.699219 83.359375 48.996094 C 83.359375 47.292969 84.742188 45.910156 86.449219 45.910156 C 88.15625 45.910156 89.539062 47.292969 89.539062 48.996094 " fill-opacity="1" fill-rule="nonzero"/><path fill="#404a54" d="M 77.660156 78.976562 C 74.707031 78.976562 71.949219 77.386719 70.46875 74.832031 C 70.074219 74.148438 70.308594 73.273438 70.992188 72.875 C 71.679688 72.480469 72.554688 72.714844 72.953125 73.398438 C 73.921875 75.070312 75.726562 76.109375 77.660156 76.109375 C 79.46875 76.109375 81.15625 75.21875 82.167969 73.71875 C 82.613281 73.0625 83.503906 72.890625 84.160156 73.332031 C 84.816406 73.777344 84.992188 74.667969 84.546875 75.320312 C 83 77.609375 80.425781 78.976562 77.660156 78.976562 " fill-opacity="1" fill-rule="nonzero"/><path fill="#9dab2c" d="M 76.226562 88.875 C 76.226562 88.152344 76.8125 87.570312 77.535156 87.570312 C 78.257812 87.570312 78.839844 88.152344 78.839844 88.875 C 78.839844 89.59375 78.257812 90.175781 77.535156 90.175781 C 76.8125 90.175781 76.226562 89.59375 76.226562 88.875 " fill-opacity="1" fill-rule="nonzero"/><path fill="#9dab2c" d="M 66.679688 88.875 C 66.679688 88.152344 67.265625 87.570312 67.984375 87.570312 C 68.707031 87.570312 69.292969 88.152344 69.292969 88.875 C 69.292969 89.59375 68.707031 90.175781 67.984375 90.175781 C 67.265625 90.175781 66.679688 89.59375 66.679688 88.875 " fill-opacity="1" fill-rule="nonzero"/><path fill="#9dab2c" d="M 57.128906 88.875 C 57.128906 88.152344 57.714844 87.570312 58.4375 87.570312 C 59.15625 87.570312 59.742188 88.152344 59.742188 88.875 C 59.742188 89.59375 59.15625 90.175781 58.4375 90.175781 C 57.714844 90.175781 57.128906 89.59375 57.128906 88.875 " fill-opacity="1" fill-rule="nonzero"/><path fill="#9dab2c" d="M 47.582031 88.875 C 47.582031 88.152344 48.164062 87.570312 48.886719 87.570312 C 49.609375 87.570312 50.195312 88.152344 50.195312 88.875 C 50.195312 89.59375 49.609375 90.175781 48.886719 90.175781 C 48.164062 90.175781 47.582031 89.59375 47.582031 88.875 " fill-opacity="1" fill-rule="nonzero"/><path fill="#9dab2c" d="M 85.777344 88.875 C 85.777344 88.152344 86.363281 87.570312 87.085938 87.570312 C 87.804688 87.570312 88.390625 88.152344 88.390625 88.875 C 88.390625 89.59375 87.804688 90.175781 87.085938 90.175781 C 86.363281 90.175781 85.777344 89.59375 85.777344 88.875 " fill-opacity="1" fill-rule="nonzero"/><path fill="#9dab2c" d="M 95.328125 88.875 C 95.328125 88.152344 95.910156 87.570312 96.632812 87.570312 C 97.355469 87.570312 97.941406 88.152344 97.941406 88.875 C 97.941406 89.59375 97.355469 90.175781 96.632812 90.175781 C 95.910156 90.175781 95.328125 89.59375 95.328125 88.875 " fill-opacity="1" fill-rule="nonzero"/><path fill="#9dab2c" d="M 104.875 88.875 C 104.875 88.152344 105.460938 87.570312 106.183594 87.570312 C 106.902344 87.570312 107.488281 88.152344 107.488281 88.875 C 107.488281 89.59375 106.902344 90.175781 106.183594 90.175781 C 105.460938 90.175781 104.875 89.59375 104.875 88.875 " fill-opacity="1" fill-rule="nonzero"/><path fill="#9dab2c" d="M 47.316406 95.675781 L 108.421875 95.675781 C 108.8125 94.789062 109.160156 93.878906 109.460938 92.953125 L 46.277344 92.953125 C 46.578125 93.878906 46.925781 94.789062 47.316406 95.675781 " fill-opacity="1" fill-rule="nonzero"/></svg>