<svg xmlns="http://www.w3.org/2000/svg" xmlns:xlink="http://www.w3.org/1999/xlink" width="100" zoomAndPan="magnify" viewBox="0 0 75 60" height="80" preserveAspectRatio="xMidYMid meet" version="1.0"><defs><clipPath id="id1"><path d="M 55.695312 42.0625 L 64.125 42.0625 L 64.125 50.28125 L 55.695312 50.28125 Z M 55.695312 42.0625 " clip-rule="nonzero"/></clipPath><clipPath id="id2"><path d="M 10.875 42 L 20 42 L 20 51 L 10.875 51 Z M 10.875 42 " clip-rule="nonzero"/></clipPath><clipPath id="id3"><path d="M 25.84375 57.808594 L 28.785156 57.808594 L 28.785156 59.988281 L 25.84375 59.988281 Z M 25.84375 57.808594 " clip-rule="nonzero"/></clipPath><clipPath id="id4"><path d="M 29.566406 57.808594 L 32.507812 57.808594 L 32.507812 59.988281 L 29.566406 59.988281 Z M 29.566406 57.808594 " clip-rule="nonzero"/></clipPath><clipPath id="id5"><path d="M 33.199219 57.808594 L 36.140625 57.808594 L 36.140625 59.988281 L 33.199219 59.988281 Z M 33.199219 57.808594 " clip-rule="nonzero"/></clipPath><clipPath id="id6"><path d="M 36.832031 57.808594 L 39.863281 57.808594 L 39.863281 59.988281 L 36.832031 59.988281 Z M 36.832031 57.808594 " clip-rule="nonzero"/></clipPath><clipPath id="id7"><path d="M 40.554688 57.808594 L 43.496094 57.808594 L 43.496094 59.988281 L 40.554688 59.988281 Z M 40.554688 57.808594 " clip-rule="nonzero"/></clipPath><clipPath id="id8"><path d="M 44.1875 57.808594 L 47.128906 57.808594 L 47.128906 59.988281 L 44.1875 59.988281 Z M 44.1875 57.808594 " clip-rule="nonzero"/></clipPath><clipPath id="id9"><path d="M 47.910156 57.808594 L 50.851562 57.808594 L 50.851562 59.988281 L 47.910156 59.988281 Z M 47.910156 57.808594 " clip-rule="nonzero"/></clipPath></defs><path fill="#404a54" d="M 42.78125 45.882812 L 42.78125 52.882812 L 33.917969 52.882812 L 33.917969 45.882812 L 42.78125 45.882812 " fill-opacity="1" fill-rule="nonzero"/><path fill="#acaca4" d="M 59.992188 41.882812 C 59.988281 41.859375 59.65625 39.625 58.046875 37.445312 C 55.90625 34.554688 52.609375 33.105469 48.25 33.152344 L 48.238281 31.835938 C 48.300781 31.835938 48.367188 31.835938 48.429688 31.835938 C 54.328125 31.835938 57.507812 34.480469 59.140625 36.714844 C 60.929688 39.160156 61.28125 41.601562 61.296875 41.703125 L 59.992188 41.882812 L 60.644531 41.792969 L 59.992188 41.882812 " fill-opacity="1" fill-rule="nonzero"/><path fill="#acaca4" d="M 57.855469 12.9375 L 17.386719 12.9375 L 17.386719 11.625 L 57.855469 11.625 L 57.855469 12.9375 " fill-opacity="1" fill-rule="nonzero"/><path fill="#5c91e5" d="M 19.113281 12.28125 C 19.113281 13.304688 18.285156 14.136719 17.257812 14.136719 C 16.234375 14.136719 15.402344 13.304688 15.402344 12.28125 C 15.402344 11.257812 16.234375 10.425781 17.257812 10.425781 C 18.285156 10.425781 19.113281 11.257812 19.113281 12.28125 " fill-opacity="1" fill-rule="nonzero"/><path fill="#5c91e5" d="M 59.707031 12.28125 C 59.707031 13.304688 58.878906 14.136719 57.851562 14.136719 C 56.828125 14.136719 55.996094 13.304688 55.996094 12.28125 C 55.996094 11.257812 56.828125 10.425781 57.851562 10.425781 C 58.878906 10.425781 59.707031 11.257812 59.707031 12.28125 " fill-opacity="1" fill-rule="nonzero"/><g clip-path="url(#id1)"><path fill="#acaca4" d="M 63.28125 50.222656 L 62.015625 49.871094 L 62.699219 47.382812 L 60.539062 43.964844 L 57.109375 46.414062 L 57.414062 48.894531 L 56.105469 49.054688 L 55.707031 45.800781 L 60.90625 42.085938 L 64.125 47.171875 L 63.28125 50.222656 " fill-opacity="1" fill-rule="nonzero"/></g><path fill="#5c91e5" d="M 58.640625 43.695312 C 58.640625 44.808594 59.539062 45.707031 60.652344 45.707031 C 61.761719 45.707031 62.664062 44.808594 62.664062 43.695312 C 62.664062 42.585938 61.761719 41.683594 60.652344 41.683594 C 59.539062 41.683594 58.640625 42.585938 58.640625 43.695312 " fill-opacity="1" fill-rule="nonzero"/><path fill="#2567b7" d="M 59.640625 43.695312 C 59.640625 44.253906 60.09375 44.707031 60.652344 44.707031 C 61.210938 44.707031 61.664062 44.253906 61.664062 43.695312 C 61.664062 43.136719 61.210938 42.683594 60.652344 42.683594 C 60.09375 42.683594 59.640625 43.136719 59.640625 43.695312 " fill-opacity="1" fill-rule="nonzero"/><path fill="#5c91e5" d="M 57.460938 37.582031 C 57.460938 38.308594 58.046875 38.894531 58.773438 38.894531 C 59.496094 38.894531 60.082031 38.308594 60.082031 37.582031 C 60.082031 36.859375 59.496094 36.269531 58.773438 36.269531 C 58.046875 36.269531 57.460938 36.859375 57.460938 37.582031 " fill-opacity="1" fill-rule="nonzero"/><path fill="#2567b7" d="M 58.113281 37.582031 C 58.113281 37.949219 58.40625 38.242188 58.773438 38.242188 C 59.136719 38.242188 59.429688 37.949219 59.429688 37.582031 C 59.429688 37.21875 59.136719 36.925781 58.773438 36.925781 C 58.40625 36.925781 58.113281 37.21875 58.113281 37.582031 " fill-opacity="1" fill-rule="nonzero"/><path fill="#5c91e5" d="M 47.574219 33.152344 C 47.574219 34.757812 48.878906 36.058594 50.484375 36.058594 C 52.089844 36.058594 53.390625 34.757812 53.390625 33.152344 C 53.390625 31.546875 52.089844 30.246094 50.484375 30.246094 C 48.878906 30.246094 47.574219 31.546875 47.574219 33.152344 " fill-opacity="1" fill-rule="nonzero"/><path fill="#2567b7" d="M 49.023438 33.152344 C 49.023438 33.957031 49.675781 34.613281 50.484375 34.613281 C 51.289062 34.613281 51.945312 33.957031 51.945312 33.152344 C 51.945312 32.34375 51.289062 31.691406 50.484375 31.691406 C 49.675781 31.691406 49.023438 32.34375 49.023438 33.152344 " fill-opacity="1" fill-rule="nonzero"/><path fill="#acaca4" d="M 15.007812 41.882812 L 13.703125 41.703125 C 13.71875 41.601562 14.070312 39.160156 15.855469 36.714844 C 17.492188 34.480469 20.671875 31.835938 26.570312 31.835938 C 26.632812 31.835938 26.695312 31.835938 26.757812 31.835938 L 26.746094 33.152344 C 22.386719 33.105469 19.089844 34.554688 16.953125 37.445312 C 15.339844 39.625 15.011719 41.859375 15.007812 41.882812 " fill-opacity="1" fill-rule="nonzero"/><g clip-path="url(#id2)"><path fill="#acaca4" d="M 11.714844 50.222656 L 10.875 47.171875 L 14.09375 42.085938 L 19.289062 45.800781 L 18.890625 49.054688 L 17.585938 48.894531 L 17.886719 46.414062 L 14.460938 43.964844 L 12.296875 47.382812 L 12.984375 49.871094 L 11.714844 50.222656 " fill-opacity="1" fill-rule="nonzero"/></g><path fill="#5c91e5" d="M 16.359375 43.695312 C 16.359375 44.808594 15.457031 45.707031 14.347656 45.707031 C 13.234375 45.707031 12.335938 44.808594 12.335938 43.695312 C 12.335938 42.585938 13.234375 41.683594 14.347656 41.683594 C 15.457031 41.683594 16.359375 42.585938 16.359375 43.695312 " fill-opacity="1" fill-rule="nonzero"/><path fill="#2567b7" d="M 15.359375 43.695312 C 15.359375 44.253906 14.90625 44.707031 14.347656 44.707031 C 13.789062 44.707031 13.335938 44.253906 13.335938 43.695312 C 13.335938 43.136719 13.789062 42.683594 14.347656 42.683594 C 14.90625 42.683594 15.359375 43.136719 15.359375 43.695312 " fill-opacity="1" fill-rule="nonzero"/><path fill="#5c91e5" d="M 17.539062 37.582031 C 17.539062 38.308594 16.953125 38.894531 16.226562 38.894531 C 15.503906 38.894531 14.914062 38.308594 14.914062 37.582031 C 14.914062 36.859375 15.503906 36.269531 16.226562 36.269531 C 16.953125 36.269531 17.539062 36.859375 17.539062 37.582031 " fill-opacity="1" fill-rule="nonzero"/><path fill="#2567b7" d="M 16.886719 37.582031 C 16.886719 37.949219 16.589844 38.242188 16.226562 38.242188 C 15.863281 38.242188 15.566406 37.949219 15.566406 37.582031 C 15.566406 37.21875 15.863281 36.925781 16.226562 36.925781 C 16.589844 36.925781 16.886719 37.21875 16.886719 37.582031 " fill-opacity="1" fill-rule="nonzero"/><path fill="#5c91e5" d="M 27.421875 33.152344 C 27.421875 34.757812 26.121094 36.058594 24.515625 36.058594 C 22.910156 36.058594 21.609375 34.757812 21.609375 33.152344 C 21.609375 31.546875 22.910156 30.246094 24.515625 30.246094 C 26.121094 30.246094 27.421875 31.546875 27.421875 33.152344 " fill-opacity="1" fill-rule="nonzero"/><path fill="#2567b7" d="M 25.976562 33.152344 C 25.976562 33.957031 25.324219 34.613281 24.515625 34.613281 C 23.710938 34.613281 23.054688 33.957031 23.054688 33.152344 C 23.054688 32.34375 23.710938 31.691406 24.515625 31.691406 C 25.324219 31.691406 25.976562 32.34375 25.976562 33.152344 " fill-opacity="1" fill-rule="nonzero"/><path fill="#9dab2c" d="M 42.195312 30.371094 L 33.046875 30.371094 C 30.730469 30.371094 28.851562 28.492188 28.851562 26.175781 L 28.851562 16.195312 C 28.851562 13.878906 30.730469 12 33.046875 12 L 42.195312 12 C 44.511719 12 46.390625 13.878906 46.390625 16.195312 L 46.390625 26.175781 C 46.390625 28.492188 44.511719 30.371094 42.195312 30.371094 " fill-opacity="1" fill-rule="nonzero"/><path fill="#9dab2c" d="M 52.382812 15.359375 L 22.863281 15.359375 C 21.90625 15.359375 21.136719 14.585938 21.136719 13.632812 L 21.136719 10.746094 C 21.136719 9.789062 21.90625 9.015625 22.863281 9.015625 L 52.382812 9.015625 C 53.335938 9.015625 54.109375 9.789062 54.109375 10.746094 L 54.109375 13.632812 C 54.109375 14.585938 53.335938 15.359375 52.382812 15.359375 " fill-opacity="1" fill-rule="nonzero"/><path fill="#d9db27" d="M 49.832031 24.367188 L 25.414062 24.367188 C 23.953125 24.367188 22.769531 23.183594 22.769531 21.726562 L 22.769531 2.652344 C 22.769531 1.191406 23.953125 0.0078125 25.414062 0.0078125 L 49.832031 0.0078125 C 51.289062 0.0078125 52.472656 1.191406 52.472656 2.652344 L 52.472656 21.726562 C 52.472656 23.183594 51.289062 24.367188 49.832031 24.367188 " fill-opacity="1" fill-rule="nonzero"/><path fill="#404a54" d="M 46.5625 21.105469 L 28.679688 21.105469 C 27.613281 21.105469 26.746094 20.242188 26.746094 19.171875 L 26.746094 5.203125 C 26.746094 4.136719 27.613281 3.269531 28.679688 3.269531 L 46.5625 3.269531 C 47.632812 3.269531 48.5 4.136719 48.5 5.203125 L 48.5 19.171875 C 48.5 20.242188 47.632812 21.105469 46.5625 21.105469 " fill-opacity="1" fill-rule="nonzero"/><path fill="#323b42" d="M 27.003906 9.835938 C 27.003906 7.296875 29.0625 5.234375 31.605469 5.234375 L 44.148438 5.234375 C 46.164062 5.234375 47.871094 6.523438 48.5 8.324219 L 48.5 7.875 C 48.5 5.332031 46.4375 3.269531 43.894531 3.269531 L 31.351562 3.269531 C 28.808594 3.269531 26.746094 5.332031 26.746094 7.875 L 26.746094 16.503906 C 26.746094 17.035156 26.835938 17.542969 27.003906 18.019531 L 27.003906 9.835938 " fill-opacity="1" fill-rule="nonzero"/><path fill="#ffffff" d="M 37.710938 17.785156 C 36.421875 17.785156 35.191406 17.148438 34.445312 16.078125 C 34.238281 15.777344 34.3125 15.367188 34.609375 15.160156 C 34.910156 14.953125 35.320312 15.027344 35.527344 15.324219 C 36.066406 16.105469 36.988281 16.539062 37.929688 16.460938 C 38.8125 16.386719 39.59375 15.882812 40.03125 15.109375 C 40.207031 14.792969 40.609375 14.679688 40.925781 14.859375 C 41.242188 15.035156 41.355469 15.4375 41.175781 15.753906 C 40.527344 16.910156 39.355469 17.664062 38.039062 17.773438 C 37.929688 17.78125 37.820312 17.785156 37.710938 17.785156 " fill-opacity="1" fill-rule="nonzero"/><path fill="#d9db27" d="M 49.246094 48.703125 L 25.996094 48.703125 C 25.246094 48.703125 24.636719 48.09375 24.636719 47.34375 L 24.636719 27.824219 C 24.636719 27.074219 25.246094 26.464844 25.996094 26.464844 L 49.246094 26.464844 C 50 26.464844 50.605469 27.074219 50.605469 27.824219 L 50.605469 47.34375 C 50.605469 48.09375 50 48.703125 49.246094 48.703125 " fill-opacity="1" fill-rule="nonzero"/><path fill="#86acf7" d="M 43.625 39.332031 L 31.621094 39.332031 C 30.804688 39.332031 30.144531 38.671875 30.144531 37.855469 L 30.144531 32.792969 C 30.144531 31.976562 30.804688 31.316406 31.621094 31.316406 L 43.625 31.316406 C 44.4375 31.316406 45.097656 31.976562 45.097656 32.792969 L 45.097656 37.855469 C 45.097656 38.671875 44.4375 39.332031 43.625 39.332031 " fill-opacity="1" fill-rule="nonzero"/><path fill="#acaca4" d="M 49.390625 53.914062 L 50.085938 56.597656 L 26.613281 56.597656 L 27.308594 53.914062 C 27.695312 52.425781 29.042969 51.382812 30.582031 51.382812 L 46.117188 51.382812 C 47.65625 51.382812 49.003906 52.425781 49.390625 53.914062 " fill-opacity="1" fill-rule="nonzero"/><path fill="#404a54" d="M 50.800781 56.519531 L 50.800781 58.792969 L 25.898438 58.792969 L 25.898438 56.519531 C 25.898438 56.316406 26.066406 56.152344 26.269531 56.152344 L 50.429688 56.152344 C 50.632812 56.152344 50.800781 56.316406 50.800781 56.519531 " fill-opacity="1" fill-rule="nonzero"/><g clip-path="url(#id3)"><path fill="#404a54" d="M 28.757812 57.863281 L 28.757812 59.449219 C 28.757812 59.746094 28.519531 59.988281 28.21875 59.988281 L 26.4375 59.988281 C 26.140625 59.988281 25.898438 59.746094 25.898438 59.449219 L 25.898438 57.863281 L 28.757812 57.863281 " fill-opacity="1" fill-rule="nonzero"/></g><g clip-path="url(#id4)"><path fill="#404a54" d="M 32.433594 57.863281 L 32.433594 59.449219 C 32.433594 59.746094 32.191406 59.988281 31.894531 59.988281 L 30.113281 59.988281 C 29.8125 59.988281 29.574219 59.746094 29.574219 59.449219 L 29.574219 57.863281 L 32.433594 57.863281 " fill-opacity="1" fill-rule="nonzero"/></g><g clip-path="url(#id5)"><path fill="#404a54" d="M 36.105469 57.863281 L 36.105469 59.449219 C 36.105469 59.746094 35.863281 59.988281 35.566406 59.988281 L 33.785156 59.988281 C 33.488281 59.988281 33.246094 59.746094 33.246094 59.449219 L 33.246094 57.863281 L 36.105469 57.863281 " fill-opacity="1" fill-rule="nonzero"/></g><g clip-path="url(#id6)"><path fill="#404a54" d="M 39.777344 57.863281 L 39.777344 59.449219 C 39.777344 59.746094 39.539062 59.988281 39.238281 59.988281 L 37.457031 59.988281 C 37.160156 59.988281 36.917969 59.746094 36.917969 59.449219 L 36.917969 57.863281 L 39.777344 57.863281 " fill-opacity="1" fill-rule="nonzero"/></g><g clip-path="url(#id7)"><path fill="#404a54" d="M 43.453125 57.863281 L 43.453125 59.449219 C 43.453125 59.746094 43.210938 59.988281 42.914062 59.988281 L 41.132812 59.988281 C 40.835938 59.988281 40.59375 59.746094 40.59375 59.449219 L 40.59375 57.863281 L 43.453125 57.863281 " fill-opacity="1" fill-rule="nonzero"/></g><g clip-path="url(#id8)"><path fill="#404a54" d="M 47.125 57.863281 L 47.125 59.449219 C 47.125 59.746094 46.882812 59.988281 46.585938 59.988281 L 44.804688 59.988281 C 44.507812 59.988281 44.265625 59.746094 44.265625 59.449219 L 44.265625 57.863281 L 47.125 57.863281 " fill-opacity="1" fill-rule="nonzero"/></g><g clip-path="url(#id9)"><path fill="#404a54" d="M 50.800781 57.863281 L 50.800781 59.449219 C 50.800781 59.746094 50.558594 59.988281 50.261719 59.988281 L 48.480469 59.988281 C 48.179688 59.988281 47.941406 59.746094 47.941406 59.449219 L 47.941406 57.863281 L 50.800781 57.863281 " fill-opacity="1" fill-rule="nonzero"/></g><path fill="#86acf7" d="M 33.40625 11.265625 C 33.40625 12.023438 32.796875 12.636719 32.039062 12.636719 C 31.285156 12.636719 30.671875 12.023438 30.671875 11.265625 C 30.671875 10.511719 31.285156 9.898438 32.039062 9.898438 C 32.796875 9.898438 33.40625 10.511719 33.40625 11.265625 " fill-opacity="1" fill-rule="nonzero"/><path fill="#86acf7" d="M 38.984375 11.265625 C 38.984375 12.023438 38.371094 12.636719 37.617188 12.636719 C 36.859375 12.636719 36.246094 12.023438 36.246094 11.265625 C 36.246094 10.511719 36.859375 9.898438 37.617188 9.898438 C 38.371094 9.898438 38.984375 10.511719 38.984375 11.265625 " fill-opacity="1" fill-rule="nonzero"/><path fill="#86acf7" d="M 44.277344 11.265625 C 44.277344 12.023438 43.664062 12.636719 42.90625 12.636719 C 42.152344 12.636719 41.539062 12.023438 41.539062 11.265625 C 41.539062 10.511719 42.152344 9.898438 42.90625 9.898438 C 43.664062 9.898438 44.277344 10.511719 44.277344 11.265625 " fill-opacity="1" fill-rule="nonzero"/><path fill="#2567b7" d="M 31.046875 3.496094 C 28.75 3.496094 26.878906 5.367188 26.878906 7.664062 L 26.878906 16.710938 C 26.878906 19.007812 28.75 20.878906 31.046875 20.878906 L 44.195312 20.878906 C 46.496094 20.878906 48.363281 19.007812 48.363281 16.710938 L 48.363281 7.664062 C 48.363281 5.367188 46.496094 3.496094 44.195312 3.496094 Z M 44.195312 22.195312 L 31.046875 22.195312 C 28.023438 22.195312 25.5625 19.734375 25.5625 16.710938 L 25.5625 7.664062 C 25.5625 4.640625 28.023438 2.183594 31.046875 2.183594 L 44.195312 2.183594 C 47.21875 2.183594 49.679688 4.640625 49.679688 7.664062 L 49.679688 16.710938 C 49.679688 19.734375 47.21875 22.195312 44.195312 22.195312 " fill-opacity="1" fill-rule="nonzero"/><path fill="#2567b7" d="M 38.691406 38.042969 C 38.65625 38.042969 38.621094 38.039062 38.589844 38.03125 C 38.441406 38 38.324219 37.898438 38.265625 37.757812 L 36.671875 33.902344 L 34.710938 37.160156 C 34.628906 37.292969 34.488281 37.378906 34.335938 37.382812 C 34.183594 37.394531 34.035156 37.320312 33.945312 37.195312 L 32.589844 35.351562 L 30.144531 35.351562 L 30.144531 34.429688 L 32.824219 34.429688 C 32.972656 34.429688 33.109375 34.5 33.195312 34.617188 L 34.277344 36.09375 L 36.355469 32.644531 C 36.445312 32.496094 36.609375 32.410156 36.785156 32.425781 C 36.957031 32.4375 37.109375 32.546875 37.175781 32.707031 L 38.867188 36.808594 L 41.507812 34.449219 C 41.59375 34.371094 41.703125 34.332031 41.816406 34.332031 L 45.097656 34.332031 L 45.097656 35.253906 L 41.992188 35.253906 L 38.996094 37.925781 C 38.914062 38.003906 38.804688 38.042969 38.691406 38.042969 " fill-opacity="1" fill-rule="nonzero"/></svg>