<svg xmlns="http://www.w3.org/2000/svg" xmlns:xlink="http://www.w3.org/1999/xlink" width="100" zoomAndPan="magnify" viewBox="0 0 75 60" height="80" preserveAspectRatio="xMidYMid meet" version="1.0"><defs><clipPath id="id1"><path d="M 56.773438 49.070312 L 58.273438 49.070312 L 58.273438 52.820312 L 56.773438 52.820312 Z M 56.773438 49.070312 " clip-rule="nonzero"/></clipPath><clipPath id="id2"><path d="M 31.234375 44.648438 L 44.238281 44.648438 L 44.238281 59.953125 L 31.234375 59.953125 Z M 31.234375 44.648438 " clip-rule="nonzero"/></clipPath><clipPath id="id3"><path d="M 54.226562 36.8125 L 58.273438 36.8125 L 58.273438 40.898438 L 54.226562 40.898438 Z M 54.226562 36.8125 " clip-rule="nonzero"/></clipPath><clipPath id="id4"><path d="M 54.226562 46.390625 L 58.273438 46.390625 L 58.273438 50.476562 L 54.226562 50.476562 Z M 54.226562 46.390625 " clip-rule="nonzero"/></clipPath><clipPath id="id5"><path d="M 17.023438 49 L 19 49 L 19 53 L 17.023438 53 Z M 17.023438 49 " clip-rule="nonzero"/></clipPath><clipPath id="id6"><path d="M 17.023438 36 L 22 36 L 22 41 L 17.023438 41 Z M 17.023438 36 " clip-rule="nonzero"/></clipPath><clipPath id="id7"><path d="M 17.023438 46 L 22 46 L 22 51 L 17.023438 51 Z M 17.023438 46 " clip-rule="nonzero"/></clipPath><clipPath id="id8"><path d="M 54 8 L 58.273438 8 L 58.273438 12 L 54 12 Z M 54 8 " clip-rule="nonzero"/></clipPath><clipPath id="id9"><path d="M 17.023438 8 L 21 8 L 21 12 L 17.023438 12 Z M 17.023438 8 " clip-rule="nonzero"/></clipPath></defs><path fill="#acaca4" d="M 54.261719 49.074219 L 54.261719 51.304688 C 54.261719 51.40625 54.300781 51.503906 54.367188 51.578125 L 55.40625 52.722656 C 55.527344 52.855469 55.75 52.769531 55.75 52.589844 L 55.75 49.867188 C 55.75 49.722656 55.601562 49.628906 55.472656 49.6875 L 54.261719 49.074219 " fill-opacity="1" fill-rule="nonzero"/><g clip-path="url(#id1)"><path fill="#acaca4" d="M 58.273438 49.074219 L 58.273438 51.304688 C 58.273438 51.40625 58.234375 51.503906 58.167969 51.578125 L 57.132812 52.722656 C 57.011719 52.855469 56.789062 52.769531 56.789062 52.589844 L 56.789062 49.867188 C 56.789062 49.722656 56.933594 49.628906 57.0625 49.6875 L 58.273438 49.074219 " fill-opacity="1" fill-rule="nonzero"/></g><path fill="#acaca4" d="M 56.753906 48.28125 L 55.496094 48.234375 L 55.523438 47.484375 C 55.640625 44.457031 55.75 41.597656 55.394531 37.730469 C 54.90625 32.386719 49.496094 32.210938 49.265625 32.207031 L 49.289062 30.945312 C 49.359375 30.949219 50.996094 30.984375 52.71875 31.808594 C 54.339844 32.585938 56.339844 34.226562 56.652344 37.613281 C 57.015625 41.5625 56.902344 44.464844 56.785156 47.535156 L 56.753906 48.28125 " fill-opacity="1" fill-rule="nonzero"/><g clip-path="url(#id2)"><path fill="#ffce00" d="M 31.972656 48.539062 C 31.972656 48.539062 30.320312 51.460938 32.164062 55.441406 L 33.867188 53.5 C 33.867188 53.5 36.78125 56.363281 36.636719 59.953125 C 36.636719 59.953125 40.714844 58.644531 40.765625 53.011719 C 40.0625 52.699219 41.765625 55.023438 42.171875 57.089844 C 42.171875 57.089844 46.496094 54.128906 42.511719 46.847656 C 39.371094 41.109375 31.972656 48.539062 31.972656 48.539062 " fill-opacity="1" fill-rule="nonzero"/></g><path fill="#fdb918" d="M 34.347656 46.863281 C 34.347656 46.863281 33.257812 48.789062 34.476562 51.414062 L 35.597656 50.132812 C 35.597656 50.132812 37.519531 52.023438 37.425781 54.390625 C 37.425781 54.390625 40.117188 53.527344 40.148438 49.8125 C 39.683594 49.609375 40.808594 51.140625 41.078125 52.503906 C 41.078125 52.503906 43.929688 50.550781 41.300781 45.75 C 39.230469 41.960938 34.347656 46.863281 34.347656 46.863281 " fill-opacity="1" fill-rule="nonzero"/><path fill="#acaca4" d="M 56.347656 10.761719 L 18.960938 10.761719 L 18.960938 9.5 L 56.347656 9.5 L 56.347656 10.761719 " fill-opacity="1" fill-rule="nonzero"/><path fill="#e43425" d="M 25.933594 13.929688 L 22.871094 13.929688 C 22.433594 13.929688 22.082031 13.578125 22.082031 13.144531 L 22.082031 7.117188 C 22.082031 6.679688 22.433594 6.328125 22.871094 6.328125 L 25.933594 6.328125 C 26.371094 6.328125 26.722656 6.679688 26.722656 7.117188 L 26.722656 13.144531 C 26.722656 13.578125 26.371094 13.929688 25.933594 13.929688 " fill-opacity="1" fill-rule="nonzero"/><path fill="#e43425" d="M 52.40625 13.929688 L 49.34375 13.929688 C 48.90625 13.929688 48.554688 13.578125 48.554688 13.144531 L 48.554688 7.117188 C 48.554688 6.679688 48.90625 6.328125 49.34375 6.328125 L 52.40625 6.328125 C 52.84375 6.328125 53.195312 6.679688 53.195312 7.117188 L 53.195312 13.144531 C 53.195312 13.578125 52.84375 13.929688 52.40625 13.929688 " fill-opacity="1" fill-rule="nonzero"/><path fill="#e43425" d="M 44.894531 48.597656 L 30.382812 48.597656 C 29.960938 48.597656 29.617188 48.253906 29.617188 47.832031 L 29.617188 28.945312 C 29.617188 28.523438 29.960938 28.179688 30.382812 28.179688 L 44.894531 28.179688 C 45.316406 28.179688 45.660156 28.523438 45.660156 28.945312 L 45.660156 47.832031 C 45.660156 48.253906 45.316406 48.597656 44.894531 48.597656 " fill-opacity="1" fill-rule="nonzero"/><path fill="#e43425" d="M 52.296875 36.253906 L 37.207031 36.253906 C 36.941406 36.253906 36.726562 36.039062 36.726562 35.773438 L 36.726562 28.835938 C 36.726562 28.570312 36.941406 28.355469 37.207031 28.355469 L 52.296875 28.355469 C 52.558594 28.355469 52.773438 28.570312 52.773438 28.835938 L 52.773438 35.773438 C 52.773438 36.039062 52.558594 36.253906 52.296875 36.253906 " fill-opacity="1" fill-rule="nonzero"/><g clip-path="url(#id3)"><path fill="#e43425" d="M 58.105469 40.886719 L 54.433594 40.886719 C 54.339844 40.886719 54.261719 40.808594 54.261719 40.714844 L 54.261719 37.046875 C 54.261719 36.953125 54.339844 36.875 54.433594 36.875 L 58.105469 36.875 C 58.199219 36.875 58.273438 36.953125 58.273438 37.046875 L 58.273438 40.714844 C 58.273438 40.808594 58.199219 40.886719 58.105469 40.886719 " fill-opacity="1" fill-rule="nonzero"/></g><g clip-path="url(#id4)"><path fill="#e43425" d="M 58.105469 50.421875 L 54.433594 50.421875 C 54.339844 50.421875 54.261719 50.347656 54.261719 50.253906 L 54.261719 46.585938 C 54.261719 46.492188 54.339844 46.414062 54.433594 46.414062 L 58.105469 46.414062 C 58.199219 46.414062 58.273438 46.492188 58.273438 46.585938 L 58.273438 50.253906 C 58.273438 50.347656 58.199219 50.421875 58.105469 50.421875 " fill-opacity="1" fill-rule="nonzero"/></g><path fill="#acaca4" d="M 21.035156 49.074219 L 21.035156 51.304688 C 21.035156 51.40625 21 51.503906 20.929688 51.578125 L 19.894531 52.722656 C 19.773438 52.855469 19.550781 52.769531 19.550781 52.589844 L 19.550781 49.867188 C 19.550781 49.722656 19.695312 49.628906 19.828125 49.6875 L 21.035156 49.074219 " fill-opacity="1" fill-rule="nonzero"/><g clip-path="url(#id5)"><path fill="#acaca4" d="M 17.023438 49.074219 L 17.023438 51.304688 C 17.023438 51.40625 17.0625 51.503906 17.132812 51.578125 L 18.167969 52.722656 C 18.289062 52.855469 18.511719 52.769531 18.511719 52.589844 L 18.511719 49.867188 C 18.511719 49.722656 18.363281 49.628906 18.234375 49.6875 L 17.023438 49.074219 " fill-opacity="1" fill-rule="nonzero"/></g><path fill="#acaca4" d="M 18.542969 48.28125 L 18.515625 47.535156 C 18.398438 44.464844 18.285156 41.5625 18.648438 37.613281 C 18.957031 34.226562 20.957031 32.585938 22.582031 31.808594 C 24.300781 30.984375 25.941406 30.949219 26.007812 30.945312 L 26.03125 32.207031 C 25.800781 32.210938 20.390625 32.386719 19.902344 37.730469 C 19.546875 41.597656 19.660156 44.457031 19.773438 47.484375 L 19.804688 48.234375 L 18.542969 48.28125 " fill-opacity="1" fill-rule="nonzero"/><path fill="#e43425" d="M 23.003906 36.253906 L 38.09375 36.253906 C 38.359375 36.253906 38.570312 36.039062 38.570312 35.773438 L 38.570312 28.835938 C 38.570312 28.570312 38.359375 28.355469 38.09375 28.355469 L 23.003906 28.355469 C 22.738281 28.355469 22.527344 28.570312 22.527344 28.835938 L 22.527344 35.773438 C 22.527344 36.039062 22.738281 36.253906 23.003906 36.253906 " fill-opacity="1" fill-rule="nonzero"/><g clip-path="url(#id6)"><path fill="#e43425" d="M 17.195312 40.886719 L 20.867188 40.886719 C 20.960938 40.886719 21.035156 40.808594 21.035156 40.714844 L 21.035156 37.046875 C 21.035156 36.953125 20.960938 36.875 20.867188 36.875 L 17.195312 36.875 C 17.101562 36.875 17.023438 36.953125 17.023438 37.046875 L 17.023438 40.714844 C 17.023438 40.808594 17.101562 40.886719 17.195312 40.886719 " fill-opacity="1" fill-rule="nonzero"/></g><g clip-path="url(#id7)"><path fill="#e43425" d="M 17.195312 50.421875 L 20.867188 50.421875 C 20.960938 50.421875 21.035156 50.347656 21.035156 50.253906 L 21.035156 46.585938 C 21.035156 46.492188 20.960938 46.414062 20.867188 46.414062 L 17.195312 46.414062 C 17.101562 46.414062 17.023438 46.492188 17.023438 46.585938 L 17.023438 50.253906 C 17.023438 50.347656 17.101562 50.421875 17.195312 50.421875 " fill-opacity="1" fill-rule="nonzero"/></g><path fill="#ffce00" d="M 43.832031 34.386719 L 31.445312 34.386719 L 31.445312 13.074219 L 43.832031 13.074219 L 43.832031 34.386719 " fill-opacity="1" fill-rule="nonzero"/><path fill="#fb6032" d="M 49.105469 21.359375 L 26.171875 21.359375 C 24.988281 21.359375 24.03125 20.398438 24.03125 19.21875 L 24.03125 2.1875 C 24.03125 1.003906 24.988281 0.046875 26.171875 0.046875 L 49.105469 0.046875 C 50.289062 0.046875 51.246094 1.003906 51.246094 2.1875 L 51.246094 19.21875 C 51.246094 20.398438 50.289062 21.359375 49.105469 21.359375 " fill-opacity="1" fill-rule="nonzero"/><path fill="#f4f4f4" d="M 43.78125 17.417969 L 31.496094 17.417969 C 29.265625 17.417969 27.457031 15.613281 27.457031 13.386719 L 27.457031 8.019531 C 27.457031 5.789062 29.265625 3.984375 31.496094 3.984375 L 43.78125 3.984375 C 46.011719 3.984375 47.820312 5.789062 47.820312 8.019531 L 47.820312 13.386719 C 47.820312 15.613281 46.011719 17.417969 43.78125 17.417969 " fill-opacity="1" fill-rule="nonzero"/><path fill="#fb6032" d="M 49.082031 46.941406 L 26.410156 46.941406 C 25.15625 46.941406 24.136719 45.925781 24.136719 44.671875 L 24.136719 25.382812 C 24.136719 24.128906 25.15625 23.113281 26.410156 23.113281 L 49.082031 23.113281 C 50.335938 23.113281 51.351562 24.128906 51.351562 25.382812 L 51.351562 44.671875 C 51.351562 45.925781 50.335938 46.941406 49.082031 46.941406 " fill-opacity="1" fill-rule="nonzero"/><path fill="#e43425" d="M 43.03125 35.84375 L 32.460938 35.84375 C 31.859375 35.84375 31.375 35.355469 31.375 34.757812 L 31.375 30.535156 C 31.375 29.933594 31.859375 29.449219 32.460938 29.449219 L 43.03125 29.449219 C 43.628906 29.449219 44.117188 29.933594 44.117188 30.535156 L 44.117188 34.757812 C 44.117188 35.355469 43.628906 35.84375 43.03125 35.84375 " fill-opacity="1" fill-rule="nonzero"/><path fill="#86acf7" d="M 39.667969 30.707031 L 35.824219 30.707031 C 34.753906 30.707031 33.886719 31.574219 33.886719 32.644531 C 33.886719 33.714844 34.753906 34.582031 35.824219 34.582031 L 39.667969 34.582031 C 40.738281 34.582031 41.605469 33.714844 41.605469 32.644531 C 41.605469 31.574219 40.738281 30.707031 39.667969 30.707031 " fill-opacity="1" fill-rule="nonzero"/><g clip-path="url(#id8)"><path fill="#ffce00" d="M 58.0625 10.128906 C 58.0625 11.074219 57.292969 11.84375 56.347656 11.84375 C 55.398438 11.84375 54.632812 11.074219 54.632812 10.128906 C 54.632812 9.183594 55.398438 8.417969 56.347656 8.417969 C 57.292969 8.417969 58.0625 9.183594 58.0625 10.128906 " fill-opacity="1" fill-rule="nonzero"/></g><g clip-path="url(#id9)"><path fill="#ffce00" d="M 20.671875 10.128906 C 20.671875 11.074219 19.90625 11.84375 18.960938 11.84375 C 18.011719 11.84375 17.246094 11.074219 17.246094 10.128906 C 17.246094 9.183594 18.011719 8.417969 18.960938 8.417969 C 19.90625 8.417969 20.671875 9.183594 20.671875 10.128906 " fill-opacity="1" fill-rule="nonzero"/></g><path fill="#acaca4" d="M 34.855469 11.53125 L 32.019531 11.53125 C 31.671875 11.53125 31.390625 11.25 31.390625 10.902344 C 31.390625 10.554688 31.671875 10.273438 32.019531 10.273438 L 33.71875 10.273438 L 32.902344 8.972656 C 32.71875 8.679688 32.808594 8.289062 33.105469 8.105469 C 33.398438 7.921875 33.789062 8.007812 33.972656 8.304688 L 35.390625 10.566406 C 35.511719 10.761719 35.519531 11.007812 35.410156 11.207031 C 35.296875 11.410156 35.085938 11.53125 34.855469 11.53125 " fill-opacity="1" fill-rule="nonzero"/><path fill="#acaca4" d="M 43.46875 11.53125 L 40.632812 11.53125 C 40.40625 11.53125 40.195312 11.410156 40.082031 11.207031 C 39.972656 11.007812 39.976562 10.761719 40.101562 10.566406 L 41.515625 8.304688 C 41.703125 8.007812 42.089844 7.921875 42.386719 8.105469 C 42.679688 8.289062 42.769531 8.679688 42.585938 8.972656 L 41.773438 10.273438 L 43.46875 10.273438 C 43.816406 10.273438 44.101562 10.554688 44.101562 10.902344 C 44.101562 11.25 43.816406 11.53125 43.46875 11.53125 " fill-opacity="1" fill-rule="nonzero"/><path fill="#acaca4" d="M 37.722656 15.429688 C 36.738281 15.429688 35.808594 14.929688 35.265625 14.101562 C 35.074219 13.808594 35.160156 13.417969 35.449219 13.230469 C 35.742188 13.039062 36.132812 13.121094 36.324219 13.414062 C 36.648438 13.910156 37.21875 14.203125 37.8125 14.167969 C 38.367188 14.140625 38.867188 13.835938 39.15625 13.359375 C 39.335938 13.0625 39.722656 12.964844 40.019531 13.144531 C 40.320312 13.324219 40.417969 13.710938 40.238281 14.007812 C 39.734375 14.84375 38.851562 15.375 37.878906 15.425781 C 37.828125 15.429688 37.777344 15.429688 37.722656 15.429688 " fill-opacity="1" fill-rule="nonzero"/><path fill="#e43425" d="M 34.371094 44.207031 C 34.195312 44.207031 34.054688 44.066406 34.054688 43.890625 L 34.054688 40.207031 C 34.054688 40.03125 34.195312 39.890625 34.371094 39.890625 C 34.546875 39.890625 34.6875 40.03125 34.6875 40.207031 L 34.6875 43.890625 C 34.6875 44.066406 34.546875 44.207031 34.371094 44.207031 " fill-opacity="1" fill-rule="nonzero"/><path fill="#e43425" d="M 35.722656 44.207031 C 35.546875 44.207031 35.40625 44.066406 35.40625 43.890625 L 35.40625 40.207031 C 35.40625 40.03125 35.546875 39.890625 35.722656 39.890625 C 35.894531 39.890625 36.035156 40.03125 36.035156 40.207031 L 36.035156 43.890625 C 36.035156 44.066406 35.894531 44.207031 35.722656 44.207031 " fill-opacity="1" fill-rule="nonzero"/><path fill="#e43425" d="M 37.070312 44.207031 C 36.894531 44.207031 36.753906 44.066406 36.753906 43.890625 L 36.753906 40.207031 C 36.753906 40.03125 36.894531 39.890625 37.070312 39.890625 C 37.246094 39.890625 37.386719 40.03125 37.386719 40.207031 L 37.386719 43.890625 C 37.386719 44.066406 37.246094 44.207031 37.070312 44.207031 " fill-opacity="1" fill-rule="nonzero"/><path fill="#e43425" d="M 38.421875 44.207031 C 38.246094 44.207031 38.105469 44.066406 38.105469 43.890625 L 38.105469 40.207031 C 38.105469 40.03125 38.246094 39.890625 38.421875 39.890625 C 38.59375 39.890625 38.734375 40.03125 38.734375 40.207031 L 38.734375 43.890625 C 38.734375 44.066406 38.59375 44.207031 38.421875 44.207031 " fill-opacity="1" fill-rule="nonzero"/><path fill="#e43425" d="M 39.769531 44.207031 C 39.59375 44.207031 39.453125 44.066406 39.453125 43.890625 L 39.453125 40.207031 C 39.453125 40.03125 39.59375 39.890625 39.769531 39.890625 C 39.945312 39.890625 40.085938 40.03125 40.085938 40.207031 L 40.085938 43.890625 C 40.085938 44.066406 39.945312 44.207031 39.769531 44.207031 " fill-opacity="1" fill-rule="nonzero"/><path fill="#e43425" d="M 41.121094 44.207031 C 40.945312 44.207031 40.804688 44.066406 40.804688 43.890625 L 40.804688 40.207031 C 40.804688 40.03125 40.945312 39.890625 41.121094 39.890625 C 41.292969 39.890625 41.433594 40.03125 41.433594 40.207031 L 41.433594 43.890625 C 41.433594 44.066406 41.292969 44.207031 41.121094 44.207031 " fill-opacity="1" fill-rule="nonzero"/><path fill="#ffffff" d="M 40.292969 32.003906 C 40.292969 32.359375 40.007812 32.644531 39.652344 32.644531 C 39.296875 32.644531 39.011719 32.359375 39.011719 32.003906 C 39.011719 31.652344 39.296875 31.363281 39.652344 31.363281 C 40.007812 31.363281 40.292969 31.652344 40.292969 32.003906 " fill-opacity="1" fill-rule="nonzero"/><path fill="#ffce00" d="M 47.265625 30.289062 L 46.953125 30.167969 C 46.796875 30.109375 46.617188 30.128906 46.476562 30.226562 L 46.199219 30.414062 C 45.84375 30.65625 45.363281 30.386719 45.386719 29.957031 L 45.40625 29.625 C 45.417969 29.453125 45.339844 29.289062 45.207031 29.183594 L 44.941406 28.980469 C 44.601562 28.71875 44.710938 28.179688 45.125 28.070312 L 45.449219 27.984375 C 45.613281 27.941406 45.746094 27.816406 45.804688 27.65625 L 45.917969 27.34375 C 46.0625 26.9375 46.609375 26.875 46.839844 27.234375 L 47.023438 27.515625 C 47.113281 27.660156 47.273438 27.75 47.441406 27.753906 L 47.777344 27.761719 C 48.207031 27.777344 48.4375 28.277344 48.164062 28.609375 L 47.953125 28.867188 C 47.84375 29 47.808594 29.175781 47.859375 29.339844 L 47.953125 29.660156 C 48.074219 30.074219 47.667969 30.445312 47.265625 30.289062 " fill-opacity="1" fill-rule="nonzero"/></svg>