<svg xmlns="http://www.w3.org/2000/svg" xmlns:xlink="http://www.w3.org/1999/xlink" width="100" zoomAndPan="magnify" viewBox="0 0 75 60" height="80" preserveAspectRatio="xMidYMid meet" version="1.0"><defs><clipPath id="id1"><path d="M 51.449219 42.628906 L 60.25 42.628906 L 60.25 50.847656 L 51.449219 50.847656 Z M 51.449219 42.628906 " clip-rule="nonzero"/></clipPath><clipPath id="id2"><path d="M 14.5 42 L 24 42 L 24 51 L 14.5 51 Z M 14.5 42 " clip-rule="nonzero"/></clipPath><clipPath id="id3"><path d="M 24.460938 57.726562 L 27.511719 57.726562 L 27.511719 59.972656 L 24.460938 59.972656 Z M 24.460938 57.726562 " clip-rule="nonzero"/></clipPath><clipPath id="id4"><path d="M 28.253906 57.726562 L 31.300781 57.726562 L 31.300781 59.972656 L 28.253906 59.972656 Z M 28.253906 57.726562 " clip-rule="nonzero"/></clipPath><clipPath id="id5"><path d="M 32.042969 57.726562 L 35.09375 57.726562 L 35.09375 59.972656 L 32.042969 59.972656 Z M 32.042969 57.726562 " clip-rule="nonzero"/></clipPath><clipPath id="id6"><path d="M 35.835938 57.726562 L 38.882812 57.726562 L 38.882812 59.972656 L 35.835938 59.972656 Z M 35.835938 57.726562 " clip-rule="nonzero"/></clipPath><clipPath id="id7"><path d="M 39.628906 57.726562 L 42.675781 57.726562 L 42.675781 59.972656 L 39.628906 59.972656 Z M 39.628906 57.726562 " clip-rule="nonzero"/></clipPath><clipPath id="id8"><path d="M 43.417969 57.726562 L 46.46875 57.726562 L 46.46875 59.972656 L 43.417969 59.972656 Z M 43.417969 57.726562 " clip-rule="nonzero"/></clipPath><clipPath id="id9"><path d="M 47.285156 57.726562 L 50.257812 57.726562 L 50.257812 59.972656 L 47.285156 59.972656 Z M 47.285156 57.726562 " clip-rule="nonzero"/></clipPath></defs><path fill="#acaca4" d="M 56.957031 43.699219 L 55.597656 43.699219 L 55.597656 36.683594 L 56.957031 36.683594 L 56.957031 43.699219 " fill-opacity="1" fill-rule="nonzero"/><path fill="#ffce00" d="M 49.863281 36.328125 L 54.871094 36.328125 L 54.871094 30.695312 L 49.863281 30.695312 L 49.863281 36.328125 " fill-opacity="1" fill-rule="nonzero"/><path fill="#fdb918" d="M 53.871094 36.328125 L 54.871094 36.328125 L 54.871094 30.695312 L 53.871094 30.695312 L 53.871094 36.328125 " fill-opacity="1" fill-rule="nonzero"/><path fill="#fdb918" d="M 52.203125 36.328125 L 53.199219 36.328125 L 53.199219 30.695312 L 52.203125 30.695312 L 52.203125 36.328125 " fill-opacity="1" fill-rule="nonzero"/><path fill="#ffce00" d="M 51.210938 37.757812 L 41.464844 37.757812 C 40.917969 37.757812 40.472656 37.308594 40.472656 36.757812 L 40.472656 30.261719 C 40.472656 29.710938 40.917969 29.265625 41.464844 29.265625 L 51.210938 29.265625 C 51.757812 29.265625 52.203125 29.710938 52.203125 30.261719 L 52.203125 36.757812 C 52.203125 37.308594 51.757812 37.757812 51.210938 37.757812 " fill-opacity="1" fill-rule="nonzero"/><path fill="#ffce00" d="M 56.699219 37.757812 L 55.851562 37.757812 C 55.304688 37.757812 54.859375 37.308594 54.859375 36.757812 L 54.859375 30.261719 C 54.859375 29.710938 55.304688 29.265625 55.851562 29.265625 L 56.699219 29.265625 C 57.246094 29.265625 57.691406 29.710938 57.691406 30.261719 L 57.691406 36.757812 C 57.691406 37.308594 57.246094 37.757812 56.699219 37.757812 " fill-opacity="1" fill-rule="nonzero"/><g clip-path="url(#id1)"><path fill="#acaca4" d="M 59.703125 50.800781 L 58.363281 50.574219 L 58.808594 47.929688 L 56.222656 44.625 L 52.957031 47.519531 L 53.527344 50.050781 L 52.203125 50.355469 L 51.449219 47.03125 L 56.402344 42.640625 L 60.25 47.558594 L 59.703125 50.800781 " fill-opacity="1" fill-rule="nonzero"/></g><path fill="#ffce00" d="M 54.859375 43.699219 C 54.859375 44.484375 55.492188 45.121094 56.277344 45.121094 C 57.058594 45.121094 57.691406 44.484375 57.691406 43.699219 C 57.691406 42.914062 57.058594 42.277344 56.277344 42.277344 C 55.492188 42.277344 54.859375 42.914062 54.859375 43.699219 " fill-opacity="1" fill-rule="nonzero"/><path fill="#fdb918" d="M 55.777344 43.699219 C 55.777344 43.976562 56 44.199219 56.277344 44.199219 C 56.550781 44.199219 56.773438 43.976562 56.773438 43.699219 C 56.773438 43.421875 56.550781 43.199219 56.277344 43.199219 C 56 43.199219 55.777344 43.421875 55.777344 43.699219 " fill-opacity="1" fill-rule="nonzero"/><path fill="#acaca4" d="M 19.152344 43.699219 L 17.792969 43.699219 L 17.792969 36.683594 L 19.152344 36.683594 L 19.152344 43.699219 " fill-opacity="1" fill-rule="nonzero"/><path fill="#ffce00" d="M 24.886719 36.328125 L 19.878906 36.328125 L 19.878906 30.695312 L 24.886719 30.695312 L 24.886719 36.328125 " fill-opacity="1" fill-rule="nonzero"/><path fill="#fdb918" d="M 20.875 36.328125 L 19.878906 36.328125 L 19.878906 30.695312 L 20.875 30.695312 L 20.875 36.328125 " fill-opacity="1" fill-rule="nonzero"/><path fill="#fdb918" d="M 22.546875 36.328125 L 21.550781 36.328125 L 21.550781 30.695312 L 22.546875 30.695312 L 22.546875 36.328125 " fill-opacity="1" fill-rule="nonzero"/><path fill="#ffce00" d="M 23.539062 37.757812 L 33.285156 37.757812 C 33.832031 37.757812 34.277344 37.308594 34.277344 36.757812 L 34.277344 30.261719 C 34.277344 29.710938 33.832031 29.265625 33.285156 29.265625 L 23.539062 29.265625 C 22.992188 29.265625 22.546875 29.710938 22.546875 30.261719 L 22.546875 36.757812 C 22.546875 37.308594 22.992188 37.757812 23.539062 37.757812 " fill-opacity="1" fill-rule="nonzero"/><path fill="#ffce00" d="M 18.050781 37.757812 L 18.894531 37.757812 C 19.445312 37.757812 19.886719 37.308594 19.886719 36.757812 L 19.886719 30.261719 C 19.886719 29.710938 19.445312 29.265625 18.894531 29.265625 L 18.050781 29.265625 C 17.5 29.265625 17.058594 29.710938 17.058594 30.261719 L 17.058594 36.757812 C 17.058594 37.308594 17.5 37.757812 18.050781 37.757812 " fill-opacity="1" fill-rule="nonzero"/><g clip-path="url(#id2)"><path fill="#acaca4" d="M 15.042969 50.800781 L 14.5 47.558594 L 18.34375 42.640625 L 23.300781 47.03125 L 22.546875 50.355469 L 21.21875 50.050781 L 21.792969 47.519531 L 18.527344 44.625 L 15.941406 47.929688 L 16.386719 50.574219 L 15.042969 50.800781 " fill-opacity="1" fill-rule="nonzero"/></g><path fill="#ffce00" d="M 19.886719 43.699219 C 19.886719 44.484375 19.253906 45.121094 18.472656 45.121094 C 17.691406 45.121094 17.058594 44.484375 17.058594 43.699219 C 17.058594 42.914062 17.691406 42.277344 18.472656 42.277344 C 19.253906 42.277344 19.886719 42.914062 19.886719 43.699219 " fill-opacity="1" fill-rule="nonzero"/><path fill="#fdb918" d="M 18.96875 43.699219 C 18.96875 43.976562 18.746094 44.199219 18.472656 44.199219 C 18.199219 44.199219 17.976562 43.976562 17.976562 43.699219 C 17.976562 43.421875 18.199219 43.199219 18.472656 43.199219 C 18.746094 43.199219 18.96875 43.421875 18.96875 43.699219 " fill-opacity="1" fill-rule="nonzero"/><path fill="#404a54" d="M 41.957031 45.3125 L 41.957031 52.585938 L 32.792969 52.585938 L 32.792969 45.3125 L 41.957031 45.3125 " fill-opacity="1" fill-rule="nonzero"/><path fill="#2567b7" d="M 43.203125 22.90625 L 31.546875 22.90625 C 31.246094 22.90625 31 22.660156 31 22.359375 L 31 10.640625 C 31 10.335938 31.246094 10.09375 31.546875 10.09375 L 43.203125 10.09375 C 43.503906 10.09375 43.746094 10.335938 43.746094 10.640625 L 43.746094 22.359375 C 43.746094 22.660156 43.503906 22.90625 43.203125 22.90625 " fill-opacity="1" fill-rule="nonzero"/><path fill="#2567b7" d="M 43.292969 32.527344 L 31.453125 32.527344 C 31.203125 32.527344 31 32.324219 31 32.070312 L 31 24.125 C 31 23.871094 31.203125 23.667969 31.453125 23.667969 L 43.292969 23.667969 C 43.546875 23.667969 43.746094 23.871094 43.746094 24.125 L 43.746094 32.070312 C 43.746094 32.324219 43.546875 32.527344 43.292969 32.527344 " fill-opacity="1" fill-rule="nonzero"/><path fill="#2567b7" d="M 41.542969 30.191406 L 33.207031 30.191406 C 32.996094 30.191406 32.824219 30.019531 32.824219 29.804688 L 32.824219 21.71875 C 32.824219 21.503906 32.996094 21.332031 33.207031 21.332031 L 41.542969 21.332031 C 41.753906 21.332031 41.925781 21.503906 41.925781 21.71875 L 41.925781 29.804688 C 41.925781 30.019531 41.753906 30.191406 41.542969 30.191406 " fill-opacity="1" fill-rule="nonzero"/><path fill="#5c91e5" d="M 47.453125 48.242188 L 27.292969 48.242188 C 25.445312 48.242188 23.949219 46.738281 23.949219 44.878906 L 23.949219 28.488281 C 23.949219 26.632812 25.445312 25.125 27.292969 25.125 L 47.453125 25.125 C 49.300781 25.125 50.800781 26.632812 50.800781 28.488281 L 50.800781 44.878906 C 50.800781 46.738281 49.300781 48.242188 47.453125 48.242188 " fill-opacity="1" fill-rule="nonzero"/><path fill="#2567b7" d="M 47.453125 46.34375 L 27.292969 46.34375 C 25.445312 46.34375 23.949219 44.835938 23.949219 42.980469 L 23.949219 44.878906 C 23.949219 46.738281 25.445312 48.242188 27.292969 48.242188 L 47.453125 48.242188 C 49.300781 48.242188 50.800781 46.738281 50.800781 44.878906 L 50.800781 42.980469 C 50.800781 44.835938 49.300781 46.34375 47.453125 46.34375 " fill-opacity="1" fill-rule="nonzero"/><path fill="#ff468c" d="M 30.757812 33.222656 L 28.023438 33.222656 C 27.945312 33.222656 27.882812 33.160156 27.882812 33.078125 L 27.882812 30.332031 C 27.882812 30.253906 27.945312 30.191406 28.023438 30.191406 L 30.757812 30.191406 C 30.835938 30.191406 30.898438 30.253906 30.898438 30.332031 L 30.898438 33.078125 C 30.898438 33.160156 30.835938 33.222656 30.757812 33.222656 " fill-opacity="1" fill-rule="nonzero"/><path fill="#ffce00" d="M 30.492188 37.273438 L 28.289062 37.273438 C 28.066406 37.273438 27.882812 37.089844 27.882812 36.863281 L 27.882812 34.652344 C 27.882812 34.425781 28.066406 34.242188 28.289062 34.242188 L 30.492188 34.242188 C 30.714844 34.242188 30.898438 34.425781 30.898438 34.652344 L 30.898438 36.863281 C 30.898438 37.089844 30.714844 37.273438 30.492188 37.273438 " fill-opacity="1" fill-rule="nonzero"/><path fill="#ffce00" d="M 34.417969 33.222656 L 32.210938 33.222656 C 31.988281 33.222656 31.808594 33.039062 31.808594 32.8125 L 31.808594 30.597656 C 31.808594 30.375 31.988281 30.191406 32.210938 30.191406 L 34.417969 30.191406 C 34.640625 30.191406 34.820312 30.375 34.820312 30.597656 L 34.820312 32.8125 C 34.820312 33.039062 34.640625 33.222656 34.417969 33.222656 " fill-opacity="1" fill-rule="nonzero"/><path fill="#ff468c" d="M 34.679688 37.273438 L 31.949219 37.273438 C 31.871094 37.273438 31.808594 37.210938 31.808594 37.132812 L 31.808594 34.382812 C 31.808594 34.304688 31.871094 34.242188 31.949219 34.242188 L 34.679688 34.242188 C 34.757812 34.242188 34.820312 34.304688 34.820312 34.382812 L 34.820312 37.132812 C 34.820312 37.210938 34.757812 37.273438 34.679688 37.273438 " fill-opacity="1" fill-rule="nonzero"/><path fill="#ff468c" d="M 38.519531 33.222656 L 35.789062 33.222656 C 35.710938 33.222656 35.648438 33.160156 35.648438 33.078125 L 35.648438 30.332031 C 35.648438 30.253906 35.710938 30.191406 35.789062 30.191406 L 38.519531 30.191406 C 38.597656 30.191406 38.664062 30.253906 38.664062 30.332031 L 38.664062 33.078125 C 38.664062 33.160156 38.597656 33.222656 38.519531 33.222656 " fill-opacity="1" fill-rule="nonzero"/><path fill="#ffce00" d="M 38.257812 37.273438 L 36.054688 37.273438 C 35.828125 37.273438 35.648438 37.089844 35.648438 36.863281 L 35.648438 34.652344 C 35.648438 34.425781 35.828125 34.242188 36.054688 34.242188 L 38.257812 34.242188 C 38.480469 34.242188 38.664062 34.425781 38.664062 34.652344 L 38.664062 36.863281 C 38.664062 37.089844 38.480469 37.273438 38.257812 37.273438 " fill-opacity="1" fill-rule="nonzero"/><path fill="#2567b7" d="M 29.894531 43.910156 C 29.617188 43.910156 29.390625 43.683594 29.390625 43.402344 C 29.390625 43.121094 29.617188 42.894531 29.894531 42.894531 C 30.175781 42.894531 30.402344 43.121094 30.402344 43.402344 C 30.402344 43.683594 30.175781 43.910156 29.894531 43.910156 " fill-opacity="1" fill-rule="nonzero"/><path fill="#2567b7" d="M 32.316406 43.910156 C 32.035156 43.910156 31.808594 43.683594 31.808594 43.402344 C 31.808594 43.121094 32.035156 42.894531 32.316406 42.894531 C 32.59375 42.894531 32.820312 43.121094 32.820312 43.402344 C 32.820312 43.683594 32.59375 43.910156 32.316406 43.910156 " fill-opacity="1" fill-rule="nonzero"/><path fill="#2567b7" d="M 34.734375 43.910156 C 34.457031 43.910156 34.230469 43.683594 34.230469 43.402344 C 34.230469 43.121094 34.457031 42.894531 34.734375 42.894531 C 35.015625 42.894531 35.238281 43.121094 35.238281 43.402344 C 35.238281 43.683594 35.015625 43.910156 34.734375 43.910156 " fill-opacity="1" fill-rule="nonzero"/><path fill="#2567b7" d="M 37.15625 43.910156 C 36.875 43.910156 36.648438 43.683594 36.648438 43.402344 C 36.648438 43.121094 36.875 42.894531 37.15625 42.894531 C 37.433594 42.894531 37.660156 43.121094 37.660156 43.402344 C 37.660156 43.683594 37.433594 43.910156 37.15625 43.910156 " fill-opacity="1" fill-rule="nonzero"/><path fill="#2567b7" d="M 37.15625 41.65625 C 36.875 41.65625 36.648438 41.429688 36.648438 41.148438 C 36.648438 40.867188 36.875 40.640625 37.15625 40.640625 C 37.433594 40.640625 37.660156 40.867188 37.660156 41.148438 C 37.660156 41.429688 37.433594 41.65625 37.15625 41.65625 " fill-opacity="1" fill-rule="nonzero"/><path fill="#2567b7" d="M 39.574219 41.65625 C 39.296875 41.65625 39.070312 41.429688 39.070312 41.148438 C 39.070312 40.867188 39.296875 40.640625 39.574219 40.640625 C 39.855469 40.640625 40.078125 40.867188 40.078125 41.148438 C 40.078125 41.429688 39.855469 41.65625 39.574219 41.65625 " fill-opacity="1" fill-rule="nonzero"/><path fill="#2567b7" d="M 41.996094 41.65625 C 41.714844 41.65625 41.488281 41.429688 41.488281 41.148438 C 41.488281 40.867188 41.714844 40.640625 41.996094 40.640625 C 42.273438 40.640625 42.5 40.867188 42.5 41.148438 C 42.5 41.429688 42.273438 41.65625 41.996094 41.65625 " fill-opacity="1" fill-rule="nonzero"/><path fill="#2567b7" d="M 44.414062 41.65625 C 44.136719 41.65625 43.910156 41.429688 43.910156 41.148438 C 43.910156 40.867188 44.136719 40.640625 44.414062 40.640625 C 44.691406 40.640625 44.917969 40.867188 44.917969 41.148438 C 44.917969 41.429688 44.691406 41.65625 44.414062 41.65625 " fill-opacity="1" fill-rule="nonzero"/><path fill="#2567b7" d="M 41.996094 43.910156 C 41.714844 43.910156 41.488281 43.683594 41.488281 43.402344 C 41.488281 43.121094 41.714844 42.894531 41.996094 42.894531 C 42.273438 42.894531 42.5 43.121094 42.5 43.402344 C 42.5 43.683594 42.273438 43.910156 41.996094 43.910156 " fill-opacity="1" fill-rule="nonzero"/><path fill="#2567b7" d="M 44.414062 43.910156 C 44.136719 43.910156 43.910156 43.683594 43.910156 43.402344 C 43.910156 43.121094 44.136719 42.894531 44.414062 42.894531 C 44.691406 42.894531 44.917969 43.121094 44.917969 43.402344 C 44.917969 43.683594 44.691406 43.910156 44.414062 43.910156 " fill-opacity="1" fill-rule="nonzero"/><path fill="#ffce00" d="M 42.28125 33.222656 L 40.078125 33.222656 C 39.855469 33.222656 39.671875 33.039062 39.671875 32.8125 L 39.671875 30.597656 C 39.671875 30.375 39.855469 30.191406 40.078125 30.191406 L 42.28125 30.191406 C 42.503906 30.191406 42.6875 30.375 42.6875 30.597656 L 42.6875 32.8125 C 42.6875 33.039062 42.503906 33.222656 42.28125 33.222656 " fill-opacity="1" fill-rule="nonzero"/><path fill="#ff468c" d="M 42.546875 37.273438 L 39.8125 37.273438 C 39.734375 37.273438 39.671875 37.210938 39.671875 37.132812 L 39.671875 34.382812 C 39.671875 34.304688 39.734375 34.242188 39.8125 34.242188 L 42.546875 34.242188 C 42.625 34.242188 42.6875 34.304688 42.6875 34.382812 L 42.6875 37.132812 C 42.6875 37.210938 42.625 37.273438 42.546875 37.273438 " fill-opacity="1" fill-rule="nonzero"/><path fill="#ff468c" d="M 46.722656 33.222656 L 43.992188 33.222656 C 43.914062 33.222656 43.851562 33.160156 43.851562 33.078125 L 43.851562 30.332031 C 43.851562 30.253906 43.914062 30.191406 43.992188 30.191406 L 46.722656 30.191406 C 46.800781 30.191406 46.867188 30.253906 46.867188 30.332031 L 46.867188 33.078125 C 46.867188 33.160156 46.800781 33.222656 46.722656 33.222656 " fill-opacity="1" fill-rule="nonzero"/><path fill="#ffce00" d="M 46.460938 37.273438 L 44.257812 37.273438 C 44.03125 37.273438 43.851562 37.089844 43.851562 36.863281 L 43.851562 34.652344 C 43.851562 34.425781 44.03125 34.242188 44.257812 34.242188 L 46.460938 34.242188 C 46.683594 34.242188 46.867188 34.425781 46.867188 34.652344 L 46.867188 36.863281 C 46.867188 37.089844 46.683594 37.273438 46.460938 37.273438 " fill-opacity="1" fill-rule="nonzero"/><path fill="#acaca4" d="M 48.789062 53.660156 L 49.507812 56.449219 L 25.238281 56.449219 L 25.960938 53.660156 C 26.359375 52.109375 27.75 51.027344 29.34375 51.027344 L 45.40625 51.027344 C 47 51.027344 48.390625 52.109375 48.789062 53.660156 " fill-opacity="1" fill-rule="nonzero"/><path fill="#404a54" d="M 50.246094 56.304688 L 50.246094 58.730469 L 24.503906 58.730469 L 24.503906 56.304688 C 24.503906 56.128906 24.644531 55.984375 24.820312 55.984375 L 49.929688 55.984375 C 50.105469 55.984375 50.246094 56.128906 50.246094 56.304688 " fill-opacity="1" fill-rule="nonzero"/><g clip-path="url(#id3)"><path fill="#404a54" d="M 27.460938 57.761719 L 27.460938 59.507812 C 27.460938 59.765625 27.25 59.972656 26.996094 59.972656 L 24.964844 59.972656 C 24.710938 59.972656 24.503906 59.765625 24.503906 59.507812 L 24.503906 57.761719 L 27.460938 57.761719 " fill-opacity="1" fill-rule="nonzero"/></g><g clip-path="url(#id4)"><path fill="#404a54" d="M 31.257812 57.761719 L 31.257812 59.507812 C 31.257812 59.765625 31.050781 59.972656 30.792969 59.972656 L 28.761719 59.972656 C 28.507812 59.972656 28.300781 59.765625 28.300781 59.507812 L 28.300781 57.761719 L 31.257812 57.761719 " fill-opacity="1" fill-rule="nonzero"/></g><g clip-path="url(#id5)"><path fill="#404a54" d="M 35.054688 57.761719 L 35.054688 59.507812 C 35.054688 59.765625 34.847656 59.972656 34.589844 59.972656 L 32.5625 59.972656 C 32.304688 59.972656 32.097656 59.765625 32.097656 59.507812 L 32.097656 57.761719 L 35.054688 57.761719 " fill-opacity="1" fill-rule="nonzero"/></g><g clip-path="url(#id6)"><path fill="#404a54" d="M 38.851562 57.761719 L 38.851562 59.507812 C 38.851562 59.765625 38.644531 59.972656 38.390625 59.972656 L 36.359375 59.972656 C 36.105469 59.972656 35.894531 59.765625 35.894531 59.507812 L 35.894531 57.761719 L 38.851562 57.761719 " fill-opacity="1" fill-rule="nonzero"/></g><g clip-path="url(#id7)"><path fill="#404a54" d="M 42.652344 57.761719 L 42.652344 59.507812 C 42.652344 59.765625 42.441406 59.972656 42.1875 59.972656 L 40.15625 59.972656 C 39.902344 59.972656 39.695312 59.765625 39.695312 59.507812 L 39.695312 57.761719 L 42.652344 57.761719 " fill-opacity="1" fill-rule="nonzero"/></g><g clip-path="url(#id8)"><path fill="#404a54" d="M 46.449219 57.761719 L 46.449219 59.507812 C 46.449219 59.765625 46.242188 59.972656 45.984375 59.972656 L 43.953125 59.972656 C 43.699219 59.972656 43.492188 59.765625 43.492188 59.507812 L 43.492188 57.761719 L 46.449219 57.761719 " fill-opacity="1" fill-rule="nonzero"/></g><g clip-path="url(#id9)"><path fill="#404a54" d="M 50.246094 57.761719 L 50.246094 59.507812 C 50.246094 59.765625 50.039062 59.972656 49.78125 59.972656 L 47.753906 59.972656 C 47.496094 59.972656 47.289062 59.765625 47.289062 59.507812 L 47.289062 57.761719 L 50.246094 57.761719 " fill-opacity="1" fill-rule="nonzero"/></g><path fill="#86acf7" d="M 26.222656 11.234375 C 26.222656 17.429688 31.214844 22.449219 37.375 22.449219 C 43.53125 22.449219 48.527344 17.429688 48.527344 11.234375 C 48.527344 5.042969 43.53125 0.0234375 37.375 0.0234375 C 31.214844 0.0234375 26.222656 5.042969 26.222656 11.234375 " fill-opacity="1" fill-rule="nonzero"/><path fill="#ffffff" d="M 31.328125 4.929688 C 31.136719 4.929688 30.949219 4.851562 30.816406 4.695312 C 30.566406 4.410156 30.597656 3.976562 30.882812 3.730469 C 32.679688 2.15625 34.988281 1.289062 37.375 1.289062 C 37.894531 1.289062 38.417969 1.328125 38.925781 1.410156 C 39.296875 1.46875 39.550781 1.820312 39.492188 2.191406 C 39.433594 2.566406 39.085938 2.820312 38.714844 2.761719 C 38.273438 2.691406 37.824219 2.65625 37.375 2.65625 C 35.316406 2.65625 33.328125 3.402344 31.773438 4.761719 C 31.644531 4.875 31.488281 4.929688 31.328125 4.929688 " fill-opacity="1" fill-rule="nonzero"/><path fill="#ffffff" d="M 43.082031 4.644531 C 42.933594 4.644531 42.785156 4.597656 42.660156 4.5 C 42.132812 4.082031 41.558594 3.726562 40.953125 3.445312 C 40.613281 3.285156 40.464844 2.878906 40.625 2.539062 C 40.78125 2.195312 41.183594 2.046875 41.527344 2.203125 C 42.226562 2.53125 42.894531 2.941406 43.503906 3.425781 C 43.796875 3.660156 43.847656 4.089844 43.613281 4.386719 C 43.480469 4.554688 43.28125 4.644531 43.082031 4.644531 " fill-opacity="1" fill-rule="nonzero"/><path fill="#5c91e5" d="M 48.515625 11.621094 C 48.5 11.261719 48.46875 10.90625 48.421875 10.554688 C 47.695312 16.035156 43.027344 20.265625 37.375 20.265625 C 31.722656 20.265625 27.054688 16.035156 26.324219 10.554688 C 26.277344 10.90625 26.246094 11.261719 26.234375 11.621094 C 26.433594 17.632812 31.34375 22.449219 37.375 22.449219 C 43.40625 22.449219 48.3125 17.632812 48.515625 11.621094 " fill-opacity="1" fill-rule="nonzero"/><path fill="#404a54" d="M 37.625 17.089844 C 36.519531 17.089844 35.480469 16.5 34.910156 15.542969 C 34.714844 15.21875 34.820312 14.796875 35.140625 14.605469 C 35.464844 14.410156 35.882812 14.515625 36.074219 14.839844 C 36.402344 15.386719 36.992188 15.722656 37.625 15.722656 C 37.636719 15.722656 37.644531 15.722656 37.652344 15.722656 C 38.253906 15.710938 38.808594 15.40625 39.140625 14.898438 C 39.34375 14.582031 39.765625 14.492188 40.082031 14.699219 C 40.394531 14.90625 40.484375 15.328125 40.277344 15.644531 C 39.703125 16.53125 38.730469 17.074219 37.675781 17.089844 C 37.660156 17.089844 37.640625 17.089844 37.625 17.089844 " fill-opacity="1" fill-rule="nonzero"/><path fill="#ffffff" d="M 29.59375 10.847656 C 29.59375 9.054688 31.039062 7.601562 32.824219 7.601562 C 34.609375 7.601562 36.054688 9.054688 36.054688 10.847656 C 36.054688 12.640625 34.609375 14.09375 32.824219 14.09375 C 31.039062 14.09375 29.59375 12.640625 29.59375 10.847656 " fill-opacity="1" fill-rule="nonzero"/><path fill="#404a54" d="M 30.976562 10.847656 C 30.976562 9.820312 31.804688 8.992188 32.824219 8.992188 C 33.84375 8.992188 34.671875 9.820312 34.671875 10.847656 C 34.671875 11.871094 33.84375 12.703125 32.824219 12.703125 C 31.804688 12.703125 30.976562 11.871094 30.976562 10.847656 " fill-opacity="1" fill-rule="nonzero"/><path fill="#ffffff" d="M 32.726562 10.296875 C 32.726562 9.949219 33.007812 9.667969 33.355469 9.667969 C 33.699219 9.667969 33.980469 9.949219 33.980469 10.296875 C 33.980469 10.644531 33.699219 10.925781 33.355469 10.925781 C 33.007812 10.925781 32.726562 10.644531 32.726562 10.296875 " fill-opacity="1" fill-rule="nonzero"/><path fill="#ffffff" d="M 38.695312 10.847656 C 38.695312 9.054688 40.140625 7.601562 41.925781 7.601562 C 43.707031 7.601562 45.15625 9.054688 45.15625 10.847656 C 45.15625 12.640625 43.707031 14.09375 41.925781 14.09375 C 40.140625 14.09375 38.695312 12.640625 38.695312 10.847656 " fill-opacity="1" fill-rule="nonzero"/><path fill="#404a54" d="M 40.078125 10.847656 C 40.078125 9.820312 40.90625 8.992188 41.925781 8.992188 C 42.945312 8.992188 43.773438 9.820312 43.773438 10.847656 C 43.773438 11.871094 42.945312 12.703125 41.925781 12.703125 C 40.90625 12.703125 40.078125 11.871094 40.078125 10.847656 " fill-opacity="1" fill-rule="nonzero"/><path fill="#ffffff" d="M 41.828125 10.296875 C 41.828125 9.949219 42.109375 9.667969 42.453125 9.667969 C 42.800781 9.667969 43.082031 9.949219 43.082031 10.296875 C 43.082031 10.644531 42.800781 10.925781 42.453125 10.925781 C 42.109375 10.925781 41.828125 10.644531 41.828125 10.296875 " fill-opacity="1" fill-rule="nonzero"/></svg>