<svg xmlns="http://www.w3.org/2000/svg" xmlns:xlink="http://www.w3.org/1999/xlink" width="100" zoomAndPan="magnify" viewBox="0 0 75 60" height="80" preserveAspectRatio="xMidYMid meet" version="1.0"><defs><clipPath id="id1"><path d="M 15.175781 53.753906 L 21.460938 53.753906 L 21.460938 59.980469 L 15.175781 59.980469 Z M 15.175781 53.753906 " clip-rule="nonzero"/></clipPath><clipPath id="id2"><path d="M 53.878906 53.753906 L 60.25 53.753906 L 60.25 59.980469 L 53.878906 59.980469 Z M 53.878906 53.753906 " clip-rule="nonzero"/></clipPath><clipPath id="id3"><path d="M 41 53.753906 L 47.347656 53.753906 L 47.347656 59.980469 L 41 59.980469 Z M 41 53.753906 " clip-rule="nonzero"/></clipPath><clipPath id="id4"><path d="M 28.078125 53.753906 L 34.363281 53.753906 L 34.363281 59.980469 L 28.078125 59.980469 Z M 28.078125 53.753906 " clip-rule="nonzero"/></clipPath><clipPath id="id5"><path d="M 12.5625 50.675781 L 62.8125 50.675781 L 62.8125 54.566406 L 12.5625 54.566406 Z M 12.5625 50.675781 " clip-rule="nonzero"/></clipPath></defs><path fill="#ff468c" d="M 38.46875 12.375 L 36.902344 12.375 L 36.902344 9.265625 L 38.46875 9.265625 L 38.46875 12.375 " fill-opacity="1" fill-rule="nonzero"/><path fill="#ff468c" d="M 42.898438 19.246094 L 32.476562 19.246094 L 32.476562 13.042969 C 32.476562 12.089844 33.253906 11.316406 34.210938 11.316406 L 41.160156 11.316406 C 42.121094 11.316406 42.898438 12.089844 42.898438 13.042969 L 42.898438 19.246094 " fill-opacity="1" fill-rule="nonzero"/><path fill="#2567b7" d="M 43.035156 20.40625 L 32.339844 20.40625 C 31.722656 20.40625 31.226562 19.910156 31.226562 19.300781 L 31.226562 16.324219 C 31.226562 15.714844 31.722656 15.21875 32.339844 15.21875 L 43.035156 15.21875 C 43.648438 15.21875 44.148438 15.714844 44.148438 16.324219 L 44.148438 19.300781 C 44.148438 19.910156 43.648438 20.40625 43.035156 20.40625 " fill-opacity="1" fill-rule="nonzero"/><g clip-path="url(#id1)"><path fill="#2567b7" d="M 21.425781 56.878906 C 21.425781 58.589844 20.027344 59.980469 18.300781 59.980469 C 16.574219 59.980469 15.175781 58.589844 15.175781 56.878906 C 15.175781 55.164062 16.574219 53.773438 18.300781 53.773438 C 20.027344 53.773438 21.425781 55.164062 21.425781 56.878906 " fill-opacity="1" fill-rule="nonzero"/></g><g clip-path="url(#id2)"><path fill="#2567b7" d="M 60.199219 56.878906 C 60.199219 58.589844 58.796875 59.980469 57.070312 59.980469 C 55.34375 59.980469 53.945312 58.589844 53.945312 56.878906 C 53.945312 55.164062 55.34375 53.773438 57.070312 53.773438 C 58.796875 53.773438 60.199219 55.164062 60.199219 56.878906 " fill-opacity="1" fill-rule="nonzero"/></g><path fill="#ffffff" d="M 58.371094 56.878906 C 58.371094 57.589844 57.789062 58.167969 57.070312 58.167969 C 56.355469 58.167969 55.773438 57.589844 55.773438 56.878906 C 55.773438 56.164062 56.355469 55.585938 57.070312 55.585938 C 57.789062 55.585938 58.371094 56.164062 58.371094 56.878906 " fill-opacity="1" fill-rule="nonzero"/><g clip-path="url(#id3)"><path fill="#2567b7" d="M 47.273438 56.878906 C 47.273438 58.589844 45.875 59.980469 44.148438 59.980469 C 42.421875 59.980469 41.023438 58.589844 41.023438 56.878906 C 41.023438 55.164062 42.421875 53.773438 44.148438 53.773438 C 45.875 53.773438 47.273438 55.164062 47.273438 56.878906 " fill-opacity="1" fill-rule="nonzero"/></g><path fill="#ffffff" d="M 45.449219 56.878906 C 45.449219 57.589844 44.867188 58.167969 44.148438 58.167969 C 43.429688 58.167969 42.847656 57.589844 42.847656 56.878906 C 42.847656 56.164062 43.429688 55.585938 44.148438 55.585938 C 44.867188 55.585938 45.449219 56.164062 45.449219 56.878906 " fill-opacity="1" fill-rule="nonzero"/><g clip-path="url(#id4)"><path fill="#2567b7" d="M 34.351562 56.878906 C 34.351562 58.589844 32.953125 59.980469 31.226562 59.980469 C 29.5 59.980469 28.097656 58.589844 28.097656 56.878906 C 28.097656 55.164062 29.5 53.773438 31.226562 53.773438 C 32.953125 53.773438 34.351562 55.164062 34.351562 56.878906 " fill-opacity="1" fill-rule="nonzero"/></g><path fill="#ffffff" d="M 32.523438 56.878906 C 32.523438 57.589844 31.941406 58.167969 31.226562 58.167969 C 30.507812 58.167969 29.925781 57.589844 29.925781 56.878906 C 29.925781 56.164062 30.507812 55.585938 31.226562 55.585938 C 31.941406 55.585938 32.523438 56.164062 32.523438 56.878906 " fill-opacity="1" fill-rule="nonzero"/><path fill="#ffffff" d="M 19.601562 56.878906 C 19.601562 57.589844 19.019531 58.167969 18.300781 58.167969 C 17.582031 58.167969 17 57.589844 17 56.878906 C 17 56.164062 17.582031 55.585938 18.300781 55.585938 C 19.019531 55.585938 19.601562 56.164062 19.601562 56.878906 " fill-opacity="1" fill-rule="nonzero"/><path fill="#ff98c0" d="M 37.6875 17.535156 C 26.660156 17.535156 17.722656 26.410156 17.722656 37.351562 L 17.722656 43.082031 L 57.652344 43.082031 L 57.652344 37.351562 C 57.652344 26.410156 48.714844 17.535156 37.6875 17.535156 " fill-opacity="1" fill-rule="nonzero"/><path fill="#ffffff" d="M 45.96875 22.933594 C 45.832031 22.933594 45.695312 22.898438 45.570312 22.824219 C 44.972656 22.472656 44.347656 22.160156 43.710938 21.890625 C 43.3125 21.722656 43.125 21.269531 43.292969 20.875 C 43.464844 20.476562 43.921875 20.292969 44.320312 20.460938 C 45.023438 20.753906 45.710938 21.101562 46.367188 21.488281 C 46.742188 21.707031 46.863281 22.183594 46.644531 22.550781 C 46.496094 22.796875 46.234375 22.933594 45.96875 22.933594 " fill-opacity="1" fill-rule="nonzero"/><path fill="#ffffff" d="M 53.035156 31.484375 C 52.710938 31.484375 52.410156 31.28125 52.296875 30.960938 C 51.566406 28.902344 50.425781 27.046875 48.898438 25.457031 C 48.601562 25.148438 48.613281 24.65625 48.925781 24.359375 C 49.238281 24.0625 49.734375 24.074219 50.035156 24.386719 C 51.714844 26.136719 52.972656 28.175781 53.773438 30.449219 C 53.917969 30.851562 53.703125 31.296875 53.292969 31.4375 C 53.207031 31.46875 53.121094 31.484375 53.035156 31.484375 " fill-opacity="1" fill-rule="nonzero"/><path fill="#2567b7" d="M 58.605469 52.582031 L 16.765625 52.582031 C 15.886719 52.582031 15.175781 51.875 15.175781 51 L 15.175781 44.585938 C 15.175781 43.714844 15.886719 43.007812 16.765625 43.007812 L 58.605469 43.007812 C 59.484375 43.007812 60.199219 43.714844 60.199219 44.585938 L 60.199219 51 C 60.199219 51.875 59.484375 52.582031 58.605469 52.582031 " fill-opacity="1" fill-rule="nonzero"/><path fill="#5c91e5" d="M 37.75 48.65625 L 37.621094 48.65625 C 37.398438 48.65625 37.21875 48.476562 37.21875 48.257812 L 37.21875 45.636719 C 37.21875 45.417969 37.398438 45.238281 37.621094 45.238281 L 37.75 45.238281 C 37.972656 45.238281 38.152344 45.417969 38.152344 45.636719 L 38.152344 48.257812 C 38.152344 48.476562 37.972656 48.65625 37.75 48.65625 " fill-opacity="1" fill-rule="nonzero"/><path fill="#5c91e5" d="M 44.015625 48.65625 L 43.886719 48.65625 C 43.664062 48.65625 43.484375 48.476562 43.484375 48.257812 L 43.484375 45.636719 C 43.484375 45.417969 43.664062 45.238281 43.886719 45.238281 L 44.015625 45.238281 C 44.238281 45.238281 44.417969 45.417969 44.417969 45.636719 L 44.417969 48.257812 C 44.417969 48.476562 44.238281 48.65625 44.015625 48.65625 " fill-opacity="1" fill-rule="nonzero"/><path fill="#5c91e5" d="M 50.28125 48.65625 L 50.148438 48.65625 C 49.929688 48.65625 49.746094 48.476562 49.746094 48.257812 L 49.746094 45.636719 C 49.746094 45.417969 49.929688 45.238281 50.148438 45.238281 L 50.28125 45.238281 C 50.5 45.238281 50.683594 45.417969 50.683594 45.636719 L 50.683594 48.257812 C 50.683594 48.476562 50.5 48.65625 50.28125 48.65625 " fill-opacity="1" fill-rule="nonzero"/><path fill="#5c91e5" d="M 56.542969 48.65625 L 56.414062 48.65625 C 56.191406 48.65625 56.011719 48.476562 56.011719 48.257812 L 56.011719 45.636719 C 56.011719 45.417969 56.191406 45.238281 56.414062 45.238281 L 56.542969 45.238281 C 56.765625 45.238281 56.945312 45.417969 56.945312 45.636719 L 56.945312 48.257812 C 56.945312 48.476562 56.765625 48.65625 56.542969 48.65625 " fill-opacity="1" fill-rule="nonzero"/><path fill="#5c91e5" d="M 31.488281 48.65625 L 31.359375 48.65625 C 31.136719 48.65625 30.957031 48.476562 30.957031 48.257812 L 30.957031 45.636719 C 30.957031 45.417969 31.136719 45.238281 31.359375 45.238281 L 31.488281 45.238281 C 31.710938 45.238281 31.890625 45.417969 31.890625 45.636719 L 31.890625 48.257812 C 31.890625 48.476562 31.710938 48.65625 31.488281 48.65625 " fill-opacity="1" fill-rule="nonzero"/><path fill="#5c91e5" d="M 25.222656 48.65625 L 25.09375 48.65625 C 24.871094 48.65625 24.691406 48.476562 24.691406 48.257812 L 24.691406 45.636719 C 24.691406 45.417969 24.871094 45.238281 25.09375 45.238281 L 25.222656 45.238281 C 25.445312 45.238281 25.625 45.417969 25.625 45.636719 L 25.625 48.257812 C 25.625 48.476562 25.445312 48.65625 25.222656 48.65625 " fill-opacity="1" fill-rule="nonzero"/><path fill="#5c91e5" d="M 18.960938 48.65625 L 18.832031 48.65625 C 18.609375 48.65625 18.429688 48.476562 18.429688 48.257812 L 18.429688 45.636719 C 18.429688 45.417969 18.609375 45.238281 18.832031 45.238281 L 18.960938 45.238281 C 19.179688 45.238281 19.363281 45.417969 19.363281 45.636719 L 19.363281 48.257812 C 19.363281 48.476562 19.179688 48.65625 18.960938 48.65625 " fill-opacity="1" fill-rule="nonzero"/><g clip-path="url(#id5)"><path fill="#5c91e5" d="M 61.757812 54.484375 L 13.617188 54.484375 C 13.035156 54.484375 12.5625 54.015625 12.5625 53.4375 L 12.5625 51.722656 C 12.5625 51.144531 13.035156 50.675781 13.617188 50.675781 L 61.757812 50.675781 C 62.339844 50.675781 62.8125 51.144531 62.8125 51.722656 L 62.8125 53.4375 C 62.8125 54.015625 62.339844 54.484375 61.757812 54.484375 " fill-opacity="1" fill-rule="nonzero"/></g><path fill="#5c91e5" d="M 29.996094 30.707031 C 29.996094 26.488281 33.4375 23.070312 37.6875 23.070312 C 41.933594 23.070312 45.378906 26.488281 45.378906 30.707031 C 45.378906 34.921875 41.933594 38.339844 37.6875 38.339844 C 33.4375 38.339844 29.996094 34.921875 29.996094 30.707031 " fill-opacity="1" fill-rule="nonzero"/><path fill="#ff468c" d="M 37.6875 23.847656 C 33.878906 23.847656 30.777344 26.925781 30.777344 30.707031 C 30.777344 34.488281 33.878906 37.5625 37.6875 37.5625 C 41.496094 37.5625 44.597656 34.488281 44.597656 30.707031 C 44.597656 26.925781 41.496094 23.847656 37.6875 23.847656 Z M 37.6875 39.117188 C 33.015625 39.117188 29.210938 35.34375 29.210938 30.707031 C 29.210938 26.066406 33.015625 22.292969 37.6875 22.292969 C 42.359375 22.292969 46.160156 26.066406 46.160156 30.707031 C 46.160156 35.34375 42.359375 39.117188 37.6875 39.117188 " fill-opacity="1" fill-rule="nonzero"/><path fill="#ff468c" d="M 37.6875 1.578125 C 37.304688 1.578125 36.921875 1.722656 36.632812 2.011719 L 34.855469 3.773438 C 34.574219 4.054688 34.417969 4.425781 34.417969 4.820312 C 34.417969 5.214844 34.574219 5.589844 34.855469 5.867188 L 36.632812 7.632812 C 36.914062 7.910156 37.289062 8.066406 37.6875 8.066406 C 38.085938 8.066406 38.460938 7.910156 38.742188 7.632812 L 40.519531 5.867188 C 41.101562 5.289062 41.101562 4.351562 40.519531 3.773438 L 38.742188 2.011719 C 38.449219 1.722656 38.070312 1.578125 37.6875 1.578125 Z M 37.6875 9.621094 C 36.871094 9.621094 36.101562 9.304688 35.523438 8.730469 L 33.746094 6.96875 C 33.171875 6.394531 32.851562 5.632812 32.851562 4.820312 C 32.851562 4.011719 33.171875 3.246094 33.746094 2.675781 L 35.523438 0.910156 C 36.101562 0.335938 36.871094 0.0234375 37.6875 0.0234375 C 38.503906 0.0234375 39.273438 0.335938 39.847656 0.910156 L 41.625 2.675781 C 42.203125 3.246094 42.523438 4.011719 42.523438 4.820312 C 42.523438 5.632812 42.203125 6.394531 41.625 6.96875 L 39.847656 8.730469 C 39.273438 9.304688 38.503906 9.621094 37.6875 9.621094 " fill-opacity="1" fill-rule="nonzero"/><path fill="#ffd6ea" d="M 25.65625 28.300781 C 25.65625 28.632812 25.386719 28.898438 25.054688 28.898438 C 24.71875 28.898438 24.449219 28.632812 24.449219 28.300781 C 24.449219 27.96875 24.71875 27.699219 25.054688 27.699219 C 25.386719 27.699219 25.65625 27.96875 25.65625 28.300781 " fill-opacity="1" fill-rule="nonzero"/><path fill="#ffd6ea" d="M 25.164062 37.921875 C 25.164062 38.253906 24.894531 38.519531 24.5625 38.519531 C 24.226562 38.519531 23.957031 38.253906 23.957031 37.921875 C 23.957031 37.589844 24.226562 37.324219 24.5625 37.324219 C 24.894531 37.324219 25.164062 37.589844 25.164062 37.921875 " fill-opacity="1" fill-rule="nonzero"/><path fill="#ffd6ea" d="M 23.523438 30.375 C 23.523438 30.707031 23.253906 30.976562 22.917969 30.976562 C 22.585938 30.976562 22.316406 30.707031 22.316406 30.375 C 22.316406 30.046875 22.585938 29.777344 22.917969 29.777344 C 23.253906 29.777344 23.523438 30.046875 23.523438 30.375 " fill-opacity="1" fill-rule="nonzero"/><path fill="#ffd6ea" d="M 21.777344 37.5625 C 21.777344 37.890625 21.507812 38.160156 21.171875 38.160156 C 20.839844 38.160156 20.570312 37.890625 20.570312 37.5625 C 20.570312 37.230469 20.839844 36.960938 21.171875 36.960938 C 21.507812 36.960938 21.777344 37.230469 21.777344 37.5625 " fill-opacity="1" fill-rule="nonzero"/><path fill="#ffd6ea" d="M 27.851562 39.121094 C 27.851562 39.449219 27.582031 39.71875 27.246094 39.71875 C 26.914062 39.71875 26.644531 39.449219 26.644531 39.121094 C 26.644531 38.789062 26.914062 38.519531 27.246094 38.519531 C 27.582031 38.519531 27.851562 38.789062 27.851562 39.121094 " fill-opacity="1" fill-rule="nonzero"/><path fill="#ffd6ea" d="M 22.636719 40.871094 C 22.636719 41.203125 22.363281 41.472656 22.03125 41.472656 C 21.699219 41.472656 21.425781 41.203125 21.425781 40.871094 C 21.425781 40.542969 21.699219 40.273438 22.03125 40.273438 C 22.363281 40.273438 22.636719 40.542969 22.636719 40.871094 " fill-opacity="1" fill-rule="nonzero"/><path fill="#ffd6ea" d="M 29.667969 41.472656 C 29.667969 41.800781 29.398438 42.070312 29.0625 42.070312 C 28.730469 42.070312 28.460938 41.800781 28.460938 41.472656 C 28.460938 41.140625 28.730469 40.871094 29.0625 40.871094 C 29.398438 40.871094 29.667969 41.140625 29.667969 41.472656 " fill-opacity="1" fill-rule="nonzero"/><path fill="#ffd6ea" d="M 20.675781 40.054688 C 20.675781 40.445312 20.355469 40.757812 19.964844 40.757812 C 19.574219 40.757812 19.257812 40.445312 19.257812 40.054688 C 19.257812 39.667969 19.574219 39.351562 19.964844 39.351562 C 20.355469 39.351562 20.675781 39.667969 20.675781 40.054688 " fill-opacity="1" fill-rule="nonzero"/><path fill="#ffd6ea" d="M 23.023438 34.25 C 23.023438 34.636719 22.707031 34.953125 22.316406 34.953125 C 21.925781 34.953125 21.605469 34.636719 21.605469 34.25 C 21.605469 33.859375 21.925781 33.546875 22.316406 33.546875 C 22.707031 33.546875 23.023438 33.859375 23.023438 34.25 " fill-opacity="1" fill-rule="nonzero"/><path fill="#ffd6ea" d="M 25.878906 40.761719 C 25.878906 41.15625 25.558594 41.472656 25.164062 41.472656 C 24.769531 41.472656 24.453125 41.15625 24.453125 40.761719 C 24.453125 40.371094 24.769531 40.054688 25.164062 40.054688 C 25.558594 40.054688 25.878906 40.371094 25.878906 40.761719 " fill-opacity="1" fill-rule="nonzero"/><path fill="#ffffff" d="M 39.660156 26.925781 L 35.714844 26.925781 C 35.574219 26.925781 35.445312 27 35.375 27.121094 L 33.402344 30.511719 C 33.332031 30.632812 33.332031 30.78125 33.402344 30.898438 L 35.375 34.292969 C 35.445312 34.410156 35.574219 34.484375 35.714844 34.484375 L 39.660156 34.484375 C 39.800781 34.484375 39.929688 34.410156 40 34.292969 L 41.972656 30.898438 C 42.042969 30.78125 42.042969 30.632812 41.972656 30.511719 L 40 27.121094 C 39.929688 27 39.800781 26.925781 39.660156 26.925781 " fill-opacity="1" fill-rule="nonzero"/><path fill="#404a54" d="M 39.476562 30.066406 L 38.195312 28.886719 C 38.148438 28.847656 38.082031 28.832031 38.023438 28.851562 L 36.355469 29.363281 C 36.296875 29.378906 36.25 29.425781 36.238281 29.488281 L 35.847656 31.179688 C 35.832031 31.238281 35.851562 31.300781 35.898438 31.34375 L 37.179688 32.523438 C 37.226562 32.566406 37.289062 32.578125 37.347656 32.5625 L 39.019531 32.050781 C 39.078125 32.03125 39.125 31.984375 39.136719 31.925781 L 39.527344 30.234375 C 39.539062 30.171875 39.519531 30.109375 39.476562 30.066406 " fill-opacity="1" fill-rule="nonzero"/></svg>